<svg xmlns="http://www.w3.org/2000/svg" xmlns:xlink="http://www.w3.org/1999/xlink" version="1.1" width="149.27" height="139.762" viewBox="0 0 149.27 139.762">
<path transform="matrix(1,0,0,-1,67.054,72.70799)" stroke-width=".79701" stroke-linecap="butt" stroke-miterlimit="10" stroke-linejoin="miter" fill="none" stroke="#000000" d="M56.69362 0C56.69362 31.31142 31.31142 56.69362 0 56.69362-31.31142 56.69362-56.69362 31.31142-56.69362 0-56.69362-31.31142-31.31142-56.69362 0-56.69362 31.31142-56.69362 56.69362-31.31142 56.69362 0ZM0 0"/>
<path transform="matrix(1,0,0,-1,67.054,72.70799)" d="M1.70073 0C1.70073 .93929 .93929 1.70073 0 1.70073-.93929 1.70073-1.70073 .93929-1.70073 0-1.70073-.93929-.93929-1.70073 0-1.70073 .93929-1.70073 1.70073-.93929 1.70073 0ZM0 0"/>
<path transform="matrix(1,0,0,-1,67.054,72.70799)" stroke-width=".3985" stroke-linecap="butt" stroke-miterlimit="10" stroke-linejoin="miter" fill="none" stroke="#000000" d="M1.70073 0C1.70073 .93929 .93929 1.70073 0 1.70073-.93929 1.70073-1.70073 .93929-1.70073 0-1.70073-.93929-.93929-1.70073 0-1.70073 .93929-1.70073 1.70073-.93929 1.70073 0ZM0 0"/>
<path transform="matrix(1,0,0,-1,67.054,72.70799)" stroke-width=".79701" stroke-linecap="butt" stroke-miterlimit="10" stroke-linejoin="miter" fill="none" stroke="#000000" d="M0 0H55.98625"/>
<path transform="matrix(1,0,0,-1,123.04025,72.70799)" stroke-width=".6376" stroke-linecap="round" stroke-linejoin="round" fill="none" stroke="#000000" d="M-1.55415 2.0722C-1.42464 1.29512 0 .1295 .38852 0 0-.1295-1.42464-1.29512-1.55415-2.0722"/>
<path transform="matrix(1,0,0,-1,67.054,72.70799)" stroke-width=".79701" stroke-linecap="butt" stroke-miterlimit="10" stroke-linejoin="miter" fill="none" stroke="#000000" d="M0 0 27.99313 48.48564"/>
<path transform="matrix(.49998,-.86601,-.86601,-.49998,95.04712,24.222363)" stroke-width=".6376" stroke-linecap="round" stroke-linejoin="round" fill="none" stroke="#000000" d="M-1.55415 2.0722C-1.42464 1.29512 0 .1295 .38852 0 0-.1295-1.42464-1.29512-1.55415-2.0722"/>
<path transform="matrix(1,0,0,-1,67.054,72.70799)" d="M28.34679 0H0L14.17337 24.54909C22.94264 19.48624 28.34677 10.1261 28.34677 0Z" fill="#b3b3ff" fill-opacity=".5"/>
<path transform="matrix(1,0,0,-1,67.054,72.70799)" stroke-width="1.19553" stroke-linecap="butt" stroke-miterlimit="10" stroke-linejoin="miter" fill="none" stroke="#0000ff" d="M56.69362 0C56.69362 20.25227 45.88535 38.97253 28.3468 49.09824"/>
<text xml:space="preserve" transform="matrix(1 0 -0 1 .0000076293949 139.762)" font-size="9.9626" font-family="CMMI10" font-style="italic"><tspan y="-71.708" x="76.243">&#x03b8;</tspan></text>
<text xml:space="preserve" transform="matrix(1 0 -0 1 0 139.762)" font-size="9.9626" font-family="CMR10"><tspan y="-56.726" x="128.514">A</tspan></text>
<text xml:space="preserve" transform="matrix(1 0 -0 1 0 139.762)" font-size="9.9626" font-family="CMR10"><tspan y="-119.671" x="98.92">B</tspan></text>
</svg>
