<svg xmlns="http://www.w3.org/2000/svg" xmlns:xlink="http://www.w3.org/1999/xlink" version="1.1" width="126.439" height="416.357" viewBox="0 0 126.439 416.357">
<path transform="matrix(1,0,0,-1,29.644,400.11799)" d="M1.49442 56.69363C1.49442 57.51897 .82533 58.18805 0 58.18805-.82533 58.18805-1.49442 57.51897-1.49442 56.69363-1.49442 55.86829-.82533 55.19922 0 55.19922 .82533 55.19922 1.49442 55.86829 1.49442 56.69363ZM0 56.69363"/>
<path transform="matrix(1,0,0,-1,29.644,400.11799)" stroke-width=".59776" stroke-linecap="butt" stroke-miterlimit="10" stroke-linejoin="miter" fill="none" stroke="#000000" d="M1.49442 56.69363C1.49442 57.51897 .82533 58.18805 0 58.18805-.82533 58.18805-1.49442 57.51897-1.49442 56.69363-1.49442 55.86829-.82533 55.19922 0 55.19922 .82533 55.19922 1.49442 55.86829 1.49442 56.69363ZM0 56.69363"/>
<path transform="matrix(1,0,0,-1,29.644,400.11799)" d="M86.53487 56.69363C86.53487 57.51897 85.8658 58.18805 85.04045 58.18805 84.2151 58.18805 83.54604 57.51897 83.54604 56.69363 83.54604 55.86829 84.2151 55.19922 85.04045 55.19922 85.8658 55.19922 86.53487 55.86829 86.53487 56.69363ZM85.04045 56.69363"/>
<path transform="matrix(1,0,0,-1,29.644,400.11799)" stroke-width=".59776" stroke-linecap="butt" stroke-miterlimit="10" stroke-linejoin="miter" fill="none" stroke="#000000" d="M86.53487 56.69363C86.53487 57.51897 85.8658 58.18805 85.04045 58.18805 84.2151 58.18805 83.54604 57.51897 83.54604 56.69363 83.54604 55.86829 84.2151 55.19922 85.04045 55.19922 85.8658 55.19922 86.53487 55.86829 86.53487 56.69363ZM85.04045 56.69363"/>
<path transform="matrix(1,0,0,-1,29.644,400.11799)" d="M1.49442 113.38727C1.49442 114.2126 .82533 114.88168 0 114.88168-.82533 114.88168-1.49442 114.2126-1.49442 113.38727-1.49442 112.56192-.82533 111.89285 0 111.89285 .82533 111.89285 1.49442 112.56192 1.49442 113.38727ZM0 113.38727"/>
<path transform="matrix(1,0,0,-1,29.644,400.11799)" stroke-width=".59776" stroke-linecap="butt" stroke-miterlimit="10" stroke-linejoin="miter" fill="none" stroke="#000000" d="M1.49442 113.38727C1.49442 114.2126 .82533 114.88168 0 114.88168-.82533 114.88168-1.49442 114.2126-1.49442 113.38727-1.49442 112.56192-.82533 111.89285 0 111.89285 .82533 111.89285 1.49442 112.56192 1.49442 113.38727ZM0 113.38727"/>
<path transform="matrix(1,0,0,-1,29.644,400.11799)" d="M86.53487 113.38727C86.53487 114.2126 85.8658 114.88168 85.04045 114.88168 84.2151 114.88168 83.54604 114.2126 83.54604 113.38727 83.54604 112.56192 84.2151 111.89285 85.04045 111.89285 85.8658 111.89285 86.53487 112.56192 86.53487 113.38727ZM85.04045 113.38727"/>
<path transform="matrix(1,0,0,-1,29.644,400.11799)" stroke-width=".59776" stroke-linecap="butt" stroke-miterlimit="10" stroke-linejoin="miter" fill="none" stroke="#000000" d="M86.53487 113.38727C86.53487 114.2126 85.8658 114.88168 85.04045 114.88168 84.2151 114.88168 83.54604 114.2126 83.54604 113.38727 83.54604 112.56192 84.2151 111.89285 85.04045 111.89285 85.8658 111.89285 86.53487 112.56192 86.53487 113.38727ZM85.04045 113.38727"/>
<path transform="matrix(1,0,0,-1,29.644,400.11799)" d="M1.49442 198.4277C1.49442 199.25305 .82533 199.92212 0 199.92212-.82533 199.92212-1.49442 199.25305-1.49442 198.4277-1.49442 197.60236-.82533 196.93329 0 196.93329 .82533 196.93329 1.49442 197.60236 1.49442 198.4277ZM0 198.4277"/>
<path transform="matrix(1,0,0,-1,29.644,400.11799)" stroke-width=".59776" stroke-linecap="butt" stroke-miterlimit="10" stroke-linejoin="miter" fill="none" stroke="#000000" d="M1.49442 198.4277C1.49442 199.25305 .82533 199.92212 0 199.92212-.82533 199.92212-1.49442 199.25305-1.49442 198.4277-1.49442 197.60236-.82533 196.93329 0 196.93329 .82533 196.93329 1.49442 197.60236 1.49442 198.4277ZM0 198.4277"/>
<path transform="matrix(1,0,0,-1,29.644,400.11799)" d="M86.53487 198.4277C86.53487 199.25305 85.8658 199.92212 85.04045 199.92212 84.2151 199.92212 83.54604 199.25305 83.54604 198.4277 83.54604 197.60236 84.2151 196.93329 85.04045 196.93329 85.8658 196.93329 86.53487 197.60236 86.53487 198.4277ZM85.04045 198.4277"/>
<path transform="matrix(1,0,0,-1,29.644,400.11799)" stroke-width=".59776" stroke-linecap="butt" stroke-miterlimit="10" stroke-linejoin="miter" fill="none" stroke="#000000" d="M86.53487 198.4277C86.53487 199.25305 85.8658 199.92212 85.04045 199.92212 84.2151 199.92212 83.54604 199.25305 83.54604 198.4277 83.54604 197.60236 84.2151 196.93329 85.04045 196.93329 85.8658 196.93329 86.53487 197.60236 86.53487 198.4277ZM85.04045 198.4277"/>
<path transform="matrix(1,0,0,-1,29.644,400.11799)" d="M1.49442 255.12134C1.49442 255.94669 .82533 256.61576 0 256.61576-.82533 256.61576-1.49442 255.94669-1.49442 255.12134-1.49442 254.29599-.82533 253.62693 0 253.62693 .82533 253.62693 1.49442 254.29599 1.49442 255.12134ZM0 255.12134"/>
<path transform="matrix(1,0,0,-1,29.644,400.11799)" stroke-width=".59776" stroke-linecap="butt" stroke-miterlimit="10" stroke-linejoin="miter" fill="none" stroke="#000000" d="M1.49442 255.12134C1.49442 255.94669 .82533 256.61576 0 256.61576-.82533 256.61576-1.49442 255.94669-1.49442 255.12134-1.49442 254.29599-.82533 253.62693 0 253.62693 .82533 253.62693 1.49442 254.29599 1.49442 255.12134ZM0 255.12134"/>
<path transform="matrix(1,0,0,-1,29.644,400.11799)" d="M86.53487 255.12134C86.53487 255.94669 85.8658 256.61576 85.04045 256.61576 84.2151 256.61576 83.54604 255.94669 83.54604 255.12134 83.54604 254.29599 84.2151 253.62693 85.04045 253.62693 85.8658 253.62693 86.53487 254.29599 86.53487 255.12134ZM85.04045 255.12134"/>
<path transform="matrix(1,0,0,-1,29.644,400.11799)" stroke-width=".59776" stroke-linecap="butt" stroke-miterlimit="10" stroke-linejoin="miter" fill="none" stroke="#000000" d="M86.53487 255.12134C86.53487 255.94669 85.8658 256.61576 85.04045 256.61576 84.2151 256.61576 83.54604 255.94669 83.54604 255.12134 83.54604 254.29599 84.2151 253.62693 85.04045 253.62693 85.8658 253.62693 86.53487 254.29599 86.53487 255.12134ZM85.04045 255.12134"/>
<path transform="matrix(1,0,0,-1,29.644,400.11799)" d="M1.49442 311.81498C1.49442 312.64033 .82533 313.3094 0 313.3094-.82533 313.3094-1.49442 312.64033-1.49442 311.81498-1.49442 310.98963-.82533 310.32057 0 310.32057 .82533 310.32057 1.49442 310.98963 1.49442 311.81498ZM0 311.81498"/>
<path transform="matrix(1,0,0,-1,29.644,400.11799)" stroke-width=".59776" stroke-linecap="butt" stroke-miterlimit="10" stroke-linejoin="miter" fill="none" stroke="#000000" d="M1.49442 311.81498C1.49442 312.64033 .82533 313.3094 0 313.3094-.82533 313.3094-1.49442 312.64033-1.49442 311.81498-1.49442 310.98963-.82533 310.32057 0 310.32057 .82533 310.32057 1.49442 310.98963 1.49442 311.81498ZM0 311.81498"/>
<path transform="matrix(1,0,0,-1,29.644,400.11799)" d="M86.53487 311.81498C86.53487 312.64033 85.8658 313.3094 85.04045 313.3094 84.2151 313.3094 83.54604 312.64033 83.54604 311.81498 83.54604 310.98963 84.2151 310.32057 85.04045 310.32057 85.8658 310.32057 86.53487 310.98963 86.53487 311.81498ZM85.04045 311.81498"/>
<path transform="matrix(1,0,0,-1,29.644,400.11799)" stroke-width=".59776" stroke-linecap="butt" stroke-miterlimit="10" stroke-linejoin="miter" fill="none" stroke="#000000" d="M86.53487 311.81498C86.53487 312.64033 85.8658 313.3094 85.04045 313.3094 84.2151 313.3094 83.54604 312.64033 83.54604 311.81498 83.54604 310.98963 84.2151 310.32057 85.04045 310.32057 85.8658 310.32057 86.53487 310.98963 86.53487 311.81498ZM85.04045 311.81498"/>
<path transform="matrix(1,0,0,-1,29.644,400.11799)" stroke-width=".59776" stroke-linecap="butt" stroke-miterlimit="10" stroke-linejoin="miter" fill="none" stroke="#000000" d="M85.04045 58.33748V111.74341M85.04045 115.03111V196.78386M85.04045 200.07157V253.4775M85.04045 256.7652V310.17115"/>
<path transform="matrix(1,0,0,-1,29.644,400.11799)" d="M-3.73604 31.26094H3.73604L0 24.08775Z"/>
<path transform="matrix(1,0,0,-1,29.644,400.11799)" stroke-width=".59776" stroke-linecap="butt" stroke-miterlimit="10" stroke-linejoin="miter" fill="none" stroke="#000000" d="M-3.73604 31.26094H3.73604L0 24.08775Z"/>
<path transform="matrix(1,0,0,-1,29.644,400.11799)" stroke-width=".59776" stroke-linecap="butt" stroke-miterlimit="10" stroke-linejoin="miter" fill="none" stroke="#000000" d="M0 31.26094V23.78886"/>
<path transform="matrix(1,0,0,-1,29.644,400.11799)" stroke-width=".59776" stroke-linecap="butt" stroke-miterlimit="10" stroke-linejoin="miter" fill="none" stroke="#000000" d="M-3.73604 23.78886H3.73604"/>
<path transform="matrix(1,0,0,-1,29.644,400.11799)" stroke-width=".59776" stroke-linecap="butt" stroke-miterlimit="10" stroke-linejoin="miter" fill="none" stroke="#000000" d="M27.23778 0C27.23778 3.3014 24.56152 5.97766 21.26012 5.97766 17.9587 5.97766 15.28246 3.3014 15.28246 0 15.28246-3.3014 17.9587-5.97766 21.26012-5.97766 24.56152-5.97766 27.23778-3.3014 27.23778 0ZM21.26012 0"/>
<path transform="matrix(1,0,0,-1,29.644,400.11799)" stroke-width=".59776" stroke-linecap="butt" stroke-miterlimit="10" stroke-linejoin="miter" fill="none" stroke="#000000" d="M15.28246 0H27.23778"/>
<path transform="matrix(1,0,0,-1,29.644,400.11799)" stroke-width=".59776" stroke-linecap="butt" stroke-miterlimit="10" stroke-linejoin="miter" fill="none" stroke="#000000" d="M13.78804 8.26888H27.447"/>
<path transform="matrix(1,0,0,-1,57.091,391.8491)" d="M-1.28517 .98364 1.28517 0-1.28517-.98364Z"/>
<path transform="matrix(1,0,0,-1,57.091,391.8491)" stroke-width=".59776" stroke-linecap="butt" stroke-linejoin="round" fill="none" stroke="#000000" d="M-1.28517 .98364 1.28517 0-1.28517-.98364Z"/>
<text xml:space="preserve" transform="matrix(1 0 -0 1 0 416.35697)" font-size="7.9701" font-family="CMR8"><tspan y="-29.124" x="45.556 49.788125">3V</tspan></text>
<path transform="matrix(1,0,0,-1,29.644,400.11799)" stroke-width=".59776" stroke-linecap="round" stroke-miterlimit="10" stroke-linejoin="miter" fill="none" stroke="#000000" d="M49.434 0 51.82506 2.39107 56.60718-2.39107 58.99823 0 61.3893 2.39107 66.1714-2.39107 68.56247 0 70.95352 2.39107 75.73564-2.39107 78.1267 0H78.12679"/>
<text xml:space="preserve" transform="matrix(1 0 -0 1 0 416.35697)" font-size="7.9701" font-family="CMR8"><tspan y="-22.249" x="88.248 92.480129">3&#x2126;</tspan></text>
<path transform="matrix(1,0,0,-1,29.644,400.11799)" stroke-width=".59776" stroke-linecap="butt" stroke-miterlimit="10" stroke-linejoin="miter" fill="none" stroke="#000000" d="M0 55.04977V31.55983M0 23.48999V0H14.98357M27.53665 0H49.434M78.12679 0H85.04056L85.04045 55.04977"/>
<path transform="matrix(1,0,0,-1,29.644,400.11799)" stroke-width=".59776" stroke-linecap="round" stroke-miterlimit="10" stroke-linejoin="miter" fill="none" stroke="#000000" d="M28.1738 56.69363 30.56487 59.0847 35.34698 54.30255 37.73804 56.69363 40.12909 59.0847 44.91121 54.30255 47.30228 56.69363 49.69333 59.0847 54.47545 54.30255 56.8665 56.69363H56.8666"/>
<text xml:space="preserve" transform="matrix(1 0 -0 1 0 416.357)" font-size="7.9701" font-family="CMR8"><tspan y="-78.942" x="66.988 71.22012">4&#x2126;</tspan></text>
<path transform="matrix(1,0,0,-1,29.644,400.11799)" stroke-width=".59776" stroke-linecap="butt" stroke-miterlimit="10" stroke-linejoin="miter" fill="none" stroke="#000000" d="M1.64384 56.69363H28.1738M56.8666 56.69363H83.3966"/>
<path transform="matrix(1,0,0,-1,29.644,400.11799)" stroke-width=".59776" stroke-linecap="round" stroke-miterlimit="10" stroke-linejoin="miter" fill="none" stroke="#000000" d="M0 70.69403-2.39107 73.08508 2.39107 77.8672 0 80.25826-2.39107 82.64932 2.39107 87.43144 0 89.8225-2.39107 92.21355 2.39107 96.99567 0 99.38673V99.38681"/>
<text xml:space="preserve" transform="matrix(1 0 -0 1 -.0000009536743 416.35697)" font-size="7.9701" font-family="CMR8"><tspan y="-98.555" x="13.283 17.515124">3&#x2126;</tspan></text>
<path transform="matrix(1,0,0,-1,29.644,400.11799)" stroke-width=".59776" stroke-linecap="butt" stroke-miterlimit="10" stroke-linejoin="miter" fill="none" stroke="#000000" d="M0 58.33748V70.69403M0 99.38681V111.74341"/>
<path transform="matrix(1,0,0,-1,29.644,400.11799)" stroke-width=".59776" stroke-linecap="butt" stroke-miterlimit="10" stroke-linejoin="miter" fill="none" stroke="#000000" d="M28.05966 113.38727C28.05966 116.68867 25.38342 119.36493 22.082 119.36493 18.7806 119.36493 16.10434 116.68867 16.10434 113.38727 16.10434 110.08585 18.7806 107.4096 22.082 107.4096 25.38342 107.4096 28.05966 110.08585 28.05966 113.38727ZM22.082 113.38727"/>
<path transform="matrix(1,0,0,-1,29.644,400.11799)" stroke-width=".59776" stroke-linecap="butt" stroke-miterlimit="10" stroke-linejoin="miter" fill="none" stroke="#000000" d="M16.10434 113.38727H28.05966"/>
<path transform="matrix(1,0,0,-1,29.644,400.11799)" stroke-width=".59776" stroke-linecap="butt" stroke-miterlimit="10" stroke-linejoin="miter" fill="none" stroke="#000000" d="M15.89511 121.65614H29.55408"/>
<path transform="matrix(-1,-0,0,1,45.53911,278.46186)" d="M-1.28517 .98364 1.28517 0-1.28517-.98364Z"/>
<path transform="matrix(-1,-0,0,1,45.53911,278.46186)" stroke-width=".59776" stroke-linecap="butt" stroke-linejoin="round" fill="none" stroke="#000000" d="M-1.28517 .98364 1.28517 0-1.28517-.98364Z"/>
<text xml:space="preserve" transform="matrix(1 0 -0 1 0 416.357)" font-size="7.9701" font-family="CMR8"><tspan y="-142.509" x="46.378 50.610124">8V</tspan></text>
<path transform="matrix(1,0,0,-1,29.644,400.11799)" stroke-width=".59776" stroke-linecap="round" stroke-miterlimit="10" stroke-linejoin="miter" fill="none" stroke="#000000" d="M48.612 113.38727 51.00305 115.77834 55.78517 110.99619 58.17622 113.38727 60.56729 115.77834 65.34941 110.99619 67.74046 113.38727 70.13152 115.77834 74.91364 110.99619 77.3047 113.38727H77.3048"/>
<text xml:space="preserve" transform="matrix(1 0 -0 1 0 416.357)" font-size="7.9701" font-family="CMR8"><tspan y="-135.635" x="87.426 91.65813">2&#x2126;</tspan></text>
<path transform="matrix(1,0,0,-1,29.644,400.11799)" stroke-width=".59776" stroke-linecap="butt" stroke-miterlimit="10" stroke-linejoin="miter" fill="none" stroke="#000000" d="M1.64384 113.38727H15.80547M28.35855 113.38727H48.612M77.3048 113.38727H83.3966"/>
<path transform="matrix(1,0,0,-1,29.644,400.11799)" stroke-width=".59776" stroke-linecap="round" stroke-miterlimit="10" stroke-linejoin="miter" fill="none" stroke="#000000" d="M0 121.12288-2.39107 123.51393 2.39107 128.29605 0 130.68712-2.39107 133.07817 2.39107 137.86029 0 140.25135-2.39107 142.64241 2.39107 147.42452 0 149.81558V149.81568"/>
<text xml:space="preserve" transform="matrix(1 0 -0 1 -.0000009536743 416.35697)" font-size="7.9701" font-family="CMR8"><tspan y="-148.983" x="13.283 17.515124">1&#x2126;</tspan></text>
<path transform="matrix(1,0,0,-1,29.644,400.11799)" stroke-width=".59776" stroke-linecap="round" stroke-miterlimit="10" stroke-linejoin="miter" fill="none" stroke="#000000" d="M0 171.56339C-.66023 171.56339-1.19545 171.02817-1.19545 170.36792-1.19545 169.70769-.66023 169.17247 0 169.17247 .66023 169.17247 1.19545 169.70769 1.19545 170.36792 1.19545 171.02817 .66023 171.56339 0 171.56339ZM-.49461 171.45618-5.97766 183.51883"/>
<text fill="#ff0000" xml:space="preserve" transform="matrix(1 0 -0 1 0 416.357)" font-size="7.9701" font-family="CMMI8" font-style="italic"><tspan y="-190.413" x="33.861">S</tspan></text>
<text fill="#ff0000" xml:space="preserve" transform="matrix(1 0 -0 1 0 416.357)" font-size="5.9776" font-family="CMR6"><tspan y="-189.306" x="39.011">1</tspan></text>
<path transform="matrix(1,0,0,-1,29.644,400.11799)" stroke-width=".59776" stroke-linecap="butt" stroke-miterlimit="10" stroke-linejoin="miter" fill="none" stroke="#000000" d="M0 115.03111V121.12288M0 149.81568V169.17247M0 183.51883V196.78386"/>
<path transform="matrix(1,0,0,-1,29.644,400.11799)" stroke-width=".59776" stroke-linecap="butt" stroke-miterlimit="10" stroke-linejoin="miter" fill="none" stroke="#000000" d="M24.15158 198.4277H20.01242"/>
<path transform="matrix(-1,-0,0,1,51.725999,201.69028)" d="M-2.06958 1.58401 2.06958 0-2.06958-1.58401Z"/>
<path transform="matrix(-1,-0,0,1,51.725999,201.69028)" stroke-width=".59776" stroke-linecap="butt" stroke-linejoin="round" fill="none" stroke="#000000" d="M-2.06958 1.58401 2.06958 0-2.06958-1.58401Z"/>
<text xml:space="preserve" transform="matrix(1 0 -0 1 -.0000038146974 416.357)" font-size="7.9701" font-family="CMMI8" font-style="italic"><tspan y="-206.029" x="50.227">&#x03b9;</tspan></text>
<path transform="matrix(1,0,0,-1,29.644,400.11799)" stroke-width=".59776" stroke-linecap="round" stroke-miterlimit="10" stroke-linejoin="miter" fill="none" stroke="#000000" d="M48.612 198.4277 51.00305 200.81879 55.78517 196.03664 58.17622 198.4277 60.56729 200.81879 65.34941 196.03664 67.74046 198.4277 70.13152 200.81879 74.91364 196.03664 77.3047 198.4277H77.3048"/>
<text xml:space="preserve" transform="matrix(1 0 -0 1 0 416.357)" font-size="7.9701" font-family="CMMI8" font-style="italic"><tspan y="-220.675" x="78.567">R</tspan></text>
<text xml:space="preserve" transform="matrix(1 0 -0 1 0 416.357)" font-size="7.9701" font-family="CMR8"><tspan y="-220.675" x="87.347 96.28149 100.51361">=4&#x2126;</tspan></text>
<path transform="matrix(1,0,0,-1,29.644,400.11799)" stroke-width=".59776" stroke-linecap="butt" stroke-miterlimit="10" stroke-linejoin="miter" fill="none" stroke="#000000" d="M1.64384 198.4277H20.01242M24.15158 198.4277H48.612M77.3048 198.4277H83.3966"/>
<path transform="matrix(1,0,0,-1,29.644,400.11799)" stroke-width=".59776" stroke-linecap="butt" stroke-miterlimit="10" stroke-linejoin="miter" fill="none" stroke="#000000" d="M28.05966 255.12134C28.05966 258.42277 25.38342 261.099 22.082 261.099 18.7806 261.099 16.10434 258.42277 16.10434 255.12134 16.10434 251.81993 18.7806 249.14368 22.082 249.14368 25.38342 249.14368 28.05966 251.81993 28.05966 255.12134ZM22.082 255.12134"/>
<path transform="matrix(1,0,0,-1,29.644,400.11799)" stroke-width=".59776" stroke-linecap="butt" stroke-miterlimit="10" stroke-linejoin="miter" fill="none" stroke="#000000" d="M16.10434 255.12134H28.05966"/>
<path transform="matrix(1,0,0,-1,29.644,400.11799)" stroke-width=".59776" stroke-linecap="butt" stroke-miterlimit="10" stroke-linejoin="miter" fill="none" stroke="#000000" d="M15.89511 263.39024H29.55408"/>
<path transform="matrix(-1,-0,0,1,45.53911,136.72776)" d="M-1.28517 .98364 1.28517 0-1.28517-.98364Z"/>
<path transform="matrix(-1,-0,0,1,45.53911,136.72776)" stroke-width=".59776" stroke-linecap="butt" stroke-linejoin="round" fill="none" stroke="#000000" d="M-1.28517 .98364 1.28517 0-1.28517-.98364Z"/>
<text xml:space="preserve" transform="matrix(1 0 -0 1 0 416.357)" font-size="7.9701" font-family="CMR8"><tspan y="-284.242" x="46.378 50.610124">8V</tspan></text>
<path transform="matrix(1,0,0,-1,29.644,400.11799)" stroke-width=".59776" stroke-linecap="round" stroke-miterlimit="10" stroke-linejoin="miter" fill="none" stroke="#000000" d="M48.612 255.12134 51.00305 257.51243 55.78517 252.73027 58.17622 255.12134 60.56729 257.51243 65.34941 252.73027 67.74046 255.12134 70.13152 257.51243 74.91364 252.73027 77.3047 255.12134H77.3048"/>
<text xml:space="preserve" transform="matrix(1 0 -0 1 0 416.357)" font-size="7.9701" font-family="CMR8"><tspan y="-277.368" x="87.426 91.65813">2&#x2126;</tspan></text>
<path transform="matrix(1,0,0,-1,29.644,400.11799)" stroke-width=".59776" stroke-linecap="butt" stroke-miterlimit="10" stroke-linejoin="miter" fill="none" stroke="#000000" d="M1.64384 255.12134H15.80547M28.35855 255.12134H48.612M77.3048 255.12134H83.3966"/>
<path transform="matrix(1,0,0,-1,29.644,400.11799)" stroke-width=".59776" stroke-linecap="round" stroke-miterlimit="10" stroke-linejoin="miter" fill="none" stroke="#000000" d="M0 212.4281-2.39107 214.81917 2.39107 219.60129 0 221.99234-2.39107 224.38339 2.39107 229.16551 0 231.55658-2.39107 233.94763 2.39107 238.72975 0 241.1208V241.1209"/>
<text xml:space="preserve" transform="matrix(1 0 -0 1 -.0000009536743 416.357)" font-size="7.9701" font-family="CMR8"><tspan y="-240.287" x="13.283 17.515124">1&#x2126;</tspan></text>
<path transform="matrix(1,0,0,-1,29.644,400.11799)" stroke-width=".59776" stroke-linecap="butt" stroke-miterlimit="10" stroke-linejoin="miter" fill="none" stroke="#000000" d="M0 200.07157V212.4281M0 241.1209V253.4775"/>
<path transform="matrix(1,0,0,-1,29.644,400.11799)" stroke-width=".59776" stroke-linecap="round" stroke-miterlimit="10" stroke-linejoin="miter" fill="none" stroke="#000000" d="M0 269.12174-2.39107 271.5128 2.39107 276.29493 0 278.68598-2.39107 281.07704 2.39107 285.85917 0 288.2502-2.39107 290.64128 2.39107 295.4234 0 297.81446V297.81455"/>
<text xml:space="preserve" transform="matrix(1 0 -0 1 -.0000009536743 416.357)" font-size="7.9701" font-family="CMR8"><tspan y="-296.98" x="13.283 17.515124">3&#x2126;</tspan></text>
<path transform="matrix(1,0,0,-1,29.644,400.11799)" stroke-width=".59776" stroke-linecap="butt" stroke-miterlimit="10" stroke-linejoin="miter" fill="none" stroke="#000000" d="M0 256.7652V269.12174M0 297.81455V310.17115"/>
<path transform="matrix(1,0,0,-1,29.644,400.11799)" stroke-width=".59776" stroke-linecap="round" stroke-miterlimit="10" stroke-linejoin="miter" fill="none" stroke="#000000" d="M28.1738 311.81498 30.56487 314.20606 35.34698 309.4239 37.73804 311.81498 40.12909 314.20606 44.91121 309.4239 47.30228 311.81498 49.69333 314.20606 54.47545 309.4239 56.8665 311.81498H56.8666"/>
<text xml:space="preserve" transform="matrix(1 0 -0 1 0 416.35697)" font-size="7.9701" font-family="CMR8"><tspan y="-334.06" x="66.988 71.22012">4&#x2126;</tspan></text>
<path transform="matrix(1,0,0,-1,29.644,400.11799)" stroke-width=".59776" stroke-linecap="butt" stroke-miterlimit="10" stroke-linejoin="miter" fill="none" stroke="#000000" d="M1.64384 311.81498H28.1738M56.8666 311.81498H83.3966"/>
<path transform="matrix(1,0,0,-1,29.644,400.11799)" d="M3.73604 337.24769H-3.73604L0 344.42085Z"/>
<path transform="matrix(1,0,0,-1,29.644,400.11799)" stroke-width=".59776" stroke-linecap="butt" stroke-miterlimit="10" stroke-linejoin="miter" fill="none" stroke="#000000" d="M3.73604 337.24769H-3.73604L0 344.42085Z"/>
<path transform="matrix(1,0,0,-1,29.644,400.11799)" stroke-width=".59776" stroke-linecap="butt" stroke-miterlimit="10" stroke-linejoin="miter" fill="none" stroke="#000000" d="M0 337.24769V344.71974"/>
<path transform="matrix(1,0,0,-1,29.644,400.11799)" stroke-width=".59776" stroke-linecap="butt" stroke-miterlimit="10" stroke-linejoin="miter" fill="none" stroke="#000000" d="M3.73604 344.71974H-3.73604"/>
<path transform="matrix(1,0,0,-1,29.644,400.11799)" stroke-width=".59776" stroke-linecap="butt" stroke-miterlimit="10" stroke-linejoin="miter" fill="none" stroke="#000000" d="M27.23778 368.5086C27.23778 371.81004 24.56152 374.48628 21.26012 374.48628 17.9587 374.48628 15.28246 371.81004 15.28246 368.5086 15.28246 365.2072 17.9587 362.53096 21.26012 362.53096 24.56152 362.53096 27.23778 365.2072 27.23778 368.5086ZM21.26012 368.5086"/>
<path transform="matrix(1,0,0,-1,29.644,400.11799)" stroke-width=".59776" stroke-linecap="butt" stroke-miterlimit="10" stroke-linejoin="miter" fill="none" stroke="#000000" d="M15.28246 368.5086H27.23778"/>
<path transform="matrix(1,0,0,-1,29.644,400.11799)" stroke-width=".59776" stroke-linecap="butt" stroke-miterlimit="10" stroke-linejoin="miter" fill="none" stroke="#000000" d="M13.78804 376.7775H27.447"/>
<path transform="matrix(1,0,0,-1,57.091,23.340485)" d="M-1.28517 .98364 1.28517 0-1.28517-.98364Z"/>
<path transform="matrix(1,0,0,-1,57.091,23.340485)" stroke-width=".59776" stroke-linecap="butt" stroke-linejoin="round" fill="none" stroke="#000000" d="M-1.28517 .98364 1.28517 0-1.28517-.98364Z"/>
<text xml:space="preserve" transform="matrix(1 0 -0 1 0 416.35697)" font-size="7.9701" font-family="CMR8"><tspan y="-397.628" x="45.556 49.788125">3V</tspan></text>
<path transform="matrix(1,0,0,-1,29.644,400.11799)" stroke-width=".59776" stroke-linecap="round" stroke-miterlimit="10" stroke-linejoin="miter" fill="none" stroke="#000000" d="M49.434 368.5086 51.82506 370.8997 56.60718 366.11756 58.99823 368.5086 61.3893 370.8997 66.1714 366.11756 68.56247 368.5086 70.95352 370.8997 75.73564 366.11756 78.1267 368.5086H78.12679"/>
<text xml:space="preserve" transform="matrix(1 0 -0 1 0 416.35697)" font-size="7.9701" font-family="CMR8"><tspan y="-390.753" x="88.248 92.480129">3&#x2126;</tspan></text>
<path transform="matrix(1,0,0,-1,29.644,400.11799)" stroke-width=".59776" stroke-linecap="butt" stroke-miterlimit="10" stroke-linejoin="miter" fill="none" stroke="#000000" d="M0 313.45884V336.9488M0 345.01863V368.5086H14.98357M27.53665 368.5086H49.434M78.12679 368.5086H85.04056L85.04045 313.45884"/>
</svg>
