<svg width="410" height="114" viewBox="0 0 410 114" fill="none" xmlns="http://www.w3.org/2000/svg">
<path d="M50.584 71.864C49.816 71.864 49.432 71.416 49.432 70.52C49.432 68.536 52.792 60.632 59.512 46.808C66.296 32.92 69.688 24.888 69.688 22.712C69.688 21.816 69.208 21.368 68.248 21.368C65.496 21.368 59.384 25.56 49.912 33.944C45.56 43.8 39.576 53.528 31.96 63.128C24.344 72.728 18.552 77.528 14.584 77.528C13.24 77.528 12.568 76.728 12.568 75.128C13.656 70.456 17.208 64.6 23.224 57.56C29.24 50.52 36.28 43.512 44.344 36.536C47.672 28.92 49.336 22.968 49.336 18.68C49.336 7.544 41.496 1.976 25.816 1.976C21.592 1.976 17.912 2.328 14.776 3.032C8.76 4.248 5.496 6.392 4.984 9.464C5.112 13.048 8.664 15.64 15.64 17.24C18.584 17.88 21.528 18.552 24.472 19.256C27.416 19.96 29.912 21.048 31.96 22.52C34.008 23.992 35.032 25.88 35.032 28.184C35.032 28.696 34.84 29.4 34.456 30.296C34.072 31.128 33.592 31.544 33.016 31.544C32.504 31.544 32.248 31.224 32.248 30.584C32.248 30.2 32.376 29.784 32.632 29.336C32.952 28.888 33.112 28.536 33.112 28.28C33.112 26.488 29.336 24.664 21.784 22.808C18.584 22.04 15.384 21.176 12.184 20.216C9.048 19.192 6.392 17.816 4.216 16.088C1.976 14.296 0.856 12.344 0.856 10.232C0.856 8.12 1.912 6.392 4.024 5.048C6.072 3.64 8.664 2.616 11.8 1.976C17.88 0.759996 23.256 0.151997 27.928 0.151997C35.864 0.151997 42.2 1.752 46.936 4.952C51.672 8.152 54.04 12.888 54.04 19.16C54.04 22.04 53.112 25.912 51.256 30.776C61.56 22.52 68.152 18.392 71.032 18.392C71.864 18.392 72.568 18.712 73.144 19.352C73.784 19.992 74.104 20.792 74.104 21.752C74.104 22.648 73.496 24.728 72.28 27.992C71.064 31.256 68.28 37.528 63.928 46.808C59.64 56.088 57.496 60.792 57.496 60.92C57.496 61.048 57.592 61.176 57.784 61.304C58.168 61.304 58.776 60.728 59.608 59.576C65.816 50.936 75.128 40.92 87.544 29.528C99.96 18.072 110.712 10.36 119.8 6.392C121.656 5.62399 123.064 5.23999 124.024 5.23999C124.984 5.23999 125.464 5.592 125.464 6.296C125.464 6.936 125.048 7.512 124.216 8.024C123.384 8.472 121.944 9.4 119.896 10.808C117.912 12.152 116.6 13.112 115.96 13.688C115.32 14.264 114.872 14.552 114.616 14.552C114.36 14.552 114.2 14.36 114.136 13.976C114.072 13.592 113.912 13.4 113.656 13.4C113.464 13.4 113.112 13.496 112.6 13.688C104.856 17.336 95 24.92 83.032 36.44C70.424 48.664 61.528 58.584 56.344 66.2C54.488 68.888 53.144 70.488 52.312 71C51.544 71.576 50.968 71.864 50.584 71.864ZM17.176 74.072C19.544 74.072 23.288 70.648 28.408 63.8C33.592 56.888 38.232 49.304 42.328 41.048C35.224 47.896 29.144 54.392 24.088 60.536C19.096 66.68 16.6 71 16.6 73.496C16.6 73.88 16.792 74.072 17.176 74.072ZM91.2378 62.744C94.8218 62.744 99.1098 60.728 104.102 56.696L105.734 57.176C99.4618 62.424 94.0538 65.048 89.5098 65.048C88.9978 65.048 88.6138 65.016 88.3578 64.952C86.6298 67.064 84.7418 68.792 82.6938 70.136C80.6458 71.416 78.8538 72.056 77.3178 72.056C74.8858 72.056 73.6698 70.712 73.6698 68.024C73.6698 65.272 75.9418 61.624 80.4858 57.08C79.7178 55.224 79.3338 53.272 79.3338 51.224C79.3338 49.176 80.0698 47.512 81.5418 46.232C83.0138 44.952 84.7098 44.312 86.6298 44.312C88.6138 44.312 90.2778 44.952 91.6218 46.232C92.9658 47.512 93.6378 49.336 93.6378 51.704C93.6378 55.352 92.4538 59 90.0858 62.648C90.3418 62.712 90.7258 62.744 91.2378 62.744ZM88.1658 61.784C90.1498 58.456 91.1418 55.64 91.1418 53.336C91.1418 50.968 90.5658 49.24 89.4138 48.152C88.2618 47 87.1418 46.424 86.0538 46.424C83.8138 46.424 82.6938 47.576 82.6938 49.88C82.6938 52.184 83.2058 54.488 84.2298 56.792C85.2538 59.032 86.5658 60.696 88.1658 61.784ZM77.6058 67.448C77.6058 68.728 78.4378 69.368 80.1018 69.368C81.7658 69.368 83.8778 67.672 86.4378 64.28C84.7098 63.384 83.1738 61.816 81.8298 59.576C79.0138 62.648 77.6058 65.272 77.6058 67.448ZM127.281 55.064C127.729 54.744 128.145 54.584 128.529 54.584C128.913 54.584 129.105 54.808 129.105 55.256V55.448C124.305 59.288 119.569 62.904 114.897 66.296C110.225 69.624 106.801 71.288 104.625 71.288C103.025 71.288 102.225 70.424 102.225 68.696C102.225 66.968 102.993 65.24 104.529 63.512C106.065 61.784 107.569 60.28 109.041 59C110.577 57.72 111.345 56.888 111.345 56.504C111.345 56.056 111.089 55.576 110.577 55.064C110.129 54.488 109.745 54.104 109.424 53.912C108.337 55 105.969 56.984 102.321 59.864L101.937 58.424C105.969 55.224 108.305 53.08 108.945 51.992V51.128C108.945 49.528 109.105 48.44 109.424 47.864C109.745 47.288 110.513 46.488 111.729 45.464C112.945 44.44 113.777 43.928 114.225 43.928C114.673 43.928 115.057 44.088 115.377 44.408C115.761 44.728 115.953 45.048 115.953 45.368C115.953 45.688 115.825 46.072 115.569 46.52C115.377 46.904 115.153 47.256 114.897 47.576C114.705 47.832 114.417 48.184 114.033 48.632C113.649 49.016 113.393 49.304 113.265 49.496C113.201 49.624 113.105 49.88 112.977 50.264C112.913 50.648 112.721 50.968 112.401 51.224C112.081 51.48 111.921 51.8 111.921 52.184C111.921 52.568 112.177 53.432 112.689 54.776C113.201 56.056 113.457 57.016 113.457 57.656C113.457 58.232 112.273 59.672 109.905 61.976C107.537 64.216 106.353 66.04 106.353 67.448C106.353 68.216 106.705 68.6 107.409 68.6C108.305 68.6 109.969 67.8 112.401 66.2L113.553 65.432C117.713 62.552 121.617 59.64 125.265 56.696L127.281 55.064ZM134.164 57.272L137.236 52.568C137.044 52.504 136.852 52.472 136.66 52.472C133.972 52.472 130.452 54.52 126.1 58.616C121.748 62.712 119.572 65.592 119.572 67.256C119.572 67.704 119.828 67.928 120.34 67.928C121.94 67.928 124.372 66.584 127.636 63.896C130.9 61.144 133.076 58.936 134.164 57.272ZM155.572 55.448C142.26 66.2 134.196 71.576 131.38 71.576C130.292 71.576 129.748 70.936 129.748 69.656C129.748 68.376 130.228 66.232 131.188 63.224C131.188 63.16 131.124 63.128 130.996 63.128C123.636 69.208 118.74 72.248 116.308 72.248C114.644 72.248 113.812 71.64 113.812 70.424C113.812 67.736 116.692 63.8 122.452 58.616C128.276 53.432 132.916 50.84 136.372 50.84C136.82 50.84 137.3 51.16 137.812 51.8C139.284 49.624 147.54 37.816 162.58 16.376C164.18 14.392 165.46 13.4 166.42 13.4C167.444 13.4 167.956 13.72 167.956 14.36C167.956 15.96 162.452 23.512 151.444 37.016C147.348 42.136 143.572 47.48 140.116 53.048C136.724 58.552 135.028 62.744 135.028 65.624C135.028 66.84 135.38 67.448 136.084 67.448C136.916 67.448 138.388 66.712 140.5 65.24C144.852 62.104 148.66 59.224 151.924 56.6L153.748 55.064C154.196 54.744 154.612 54.584 154.996 54.584C155.38 54.584 155.572 54.808 155.572 55.256V55.448ZM172.791 55.064C173.303 54.744 173.719 54.584 174.039 54.584C174.423 54.584 174.615 54.808 174.615 55.256V55.448C169.687 59.608 164.471 63.512 158.967 67.16C153.527 70.808 150.071 72.632 148.599 72.632C147.127 72.632 145.879 72.344 144.855 71.768C143.895 71.256 143.415 70.648 143.415 69.944C143.415 69.24 143.607 68.664 143.991 68.216C144.375 67.704 144.727 67.448 145.047 67.448C145.367 67.448 145.879 67.96 146.583 68.984C147.351 69.944 148.087 70.424 148.791 70.424C150.263 70.424 151.415 68.856 152.247 65.72C153.079 62.584 153.495 60.44 153.495 59.288C153.495 58.072 153.399 57.464 153.207 57.464C153.079 57.464 152.951 57.528 152.823 57.656L150.039 59.864L149.655 58.424C153.687 55.224 156.023 53.08 156.663 51.992C157.047 50.968 157.591 50.456 158.295 50.456C158.743 50.456 158.967 50.616 158.967 50.936C158.967 51.256 158.743 51.96 158.295 53.048C157.847 54.072 157.239 56.44 156.471 60.152C155.767 63.864 155.415 66.008 155.415 66.584C155.415 67.16 155.575 67.448 155.895 67.448C160.375 64.696 165.111 61.272 170.103 57.176L172.791 55.064ZM199.519 62.744C203.103 62.744 207.391 60.728 212.383 56.696L214.015 57.176C207.743 62.424 202.335 65.048 197.791 65.048C197.279 65.048 196.895 65.016 196.639 64.952C194.911 67.064 193.023 68.792 190.975 70.136C188.927 71.416 187.135 72.056 185.599 72.056C183.167 72.056 181.951 70.712 181.951 68.024C181.951 65.272 184.223 61.624 188.767 57.08C187.999 55.224 187.615 53.272 187.615 51.224C187.615 49.176 188.351 47.512 189.823 46.232C191.295 44.952 192.991 44.312 194.911 44.312C196.895 44.312 198.559 44.952 199.903 46.232C201.247 47.512 201.919 49.336 201.919 51.704C201.919 55.352 200.735 59 198.367 62.648C198.623 62.712 199.007 62.744 199.519 62.744ZM196.447 61.784C198.431 58.456 199.423 55.64 199.423 53.336C199.423 50.968 198.847 49.24 197.695 48.152C196.543 47 195.423 46.424 194.335 46.424C192.095 46.424 190.975 47.576 190.975 49.88C190.975 52.184 191.487 54.488 192.511 56.792C193.535 59.032 194.847 60.696 196.447 61.784ZM185.887 67.448C185.887 68.728 186.719 69.368 188.383 69.368C190.047 69.368 192.159 67.672 194.719 64.28C192.991 63.384 191.455 61.816 190.111 59.576C187.295 62.648 185.887 65.272 185.887 67.448ZM198.602 66.296C198.602 67.256 199.498 68.344 201.29 69.56C203.018 70.712 204.682 71.288 206.282 71.288C207.946 71.288 209.354 71.192 210.506 71L212.522 68.312C210.666 64.984 207.69 63.32 203.594 63.32C202.186 63.32 201.002 63.576 200.042 64.088C199.082 64.536 198.602 65.272 198.602 66.296ZM213.962 74.552C213.962 74.04 213.898 73.336 213.77 72.44C197.962 94.904 190.058 107.224 190.058 109.4C190.058 109.976 190.442 110.264 191.21 110.264C194.09 110.264 197.354 108.248 201.002 104.216C204.586 100.248 207.626 95.416 210.122 89.72C212.682 84.088 213.962 79.032 213.962 74.552ZM241.322 55.448C231.466 63.64 223.434 68.888 217.226 71.192C217.418 72.088 217.514 73.016 217.514 73.976C217.514 77.688 216.49 81.88 214.442 86.552C212.458 91.288 209.994 95.64 207.05 99.608C204.106 103.576 200.906 106.904 197.45 109.592C193.93 112.344 190.794 113.72 188.042 113.72C186.186 113.72 185.258 112.984 185.258 111.512C185.258 108.632 193.13 95.928 208.874 73.4C207.914 73.464 207.242 73.496 206.858 73.496C203.594 73.496 201.002 72.824 199.082 71.48C197.162 70.136 196.202 68.664 196.202 67.064C196.202 65.4 197.002 64.088 198.602 63.128C200.138 62.168 202.058 61.688 204.362 61.688C208.522 61.688 211.85 63.032 214.346 65.72L236.138 35.864C236.138 35.736 236.042 35.672 235.85 35.672C230.282 41.56 225.386 46.52 221.162 50.552C217.002 54.584 214.218 57.144 212.81 58.232L210.698 59.864L210.218 58.424C215.082 54.456 219.594 50.36 223.754 46.136C227.914 41.912 230.858 38.68 232.586 36.44L235.178 33.08C239.594 27.512 242.314 24.152 243.338 23C244.938 21.272 246.186 20.408 247.082 20.408C247.978 20.408 248.426 20.952 248.426 22.04C248.426 23 246.538 26.2 242.762 31.64C238.986 37.08 236.042 41.304 233.93 44.312C227.338 53.592 223.242 59.288 221.642 61.4L216.458 68.696L216.746 69.464C221.546 67.736 226.794 64.76 232.49 60.536L239.498 55.064C240.01 54.744 240.426 54.584 240.746 54.584C241.13 54.584 241.322 54.808 241.322 55.256V55.448ZM248.031 75.896C248.031 72.504 252.447 65.24 261.279 54.104C270.111 42.904 279.839 32.536 290.463 23C291.871 19.48 292.575 16.696 292.575 14.648C292.575 6.008 285.247 1.68799 270.591 1.68799C266.111 1.68799 262.143 2.51999 258.687 4.184C256.575 5.208 255.519 6.488 255.519 8.024C255.519 9.56 256.639 11.16 258.879 12.824C261.183 14.424 263.711 15.864 266.463 17.144C269.215 18.424 271.711 20.12 273.951 22.232C276.255 24.28 277.407 26.456 277.407 28.76C277.407 30.04 277.279 31 277.023 31.64C276.767 32.28 276.543 32.6 276.351 32.6C276.031 32.6 275.807 32.152 275.679 31.256C275.679 27.672 272.991 24.44 267.615 21.56C265.311 20.344 263.007 19.16 260.703 18.008C255.327 15.128 252.639 12.024 252.639 8.696C252.639 7.16 253.343 5.816 254.751 4.664C256.159 3.448 257.951 2.52 260.127 1.88C264.287 0.727997 267.839 0.151997 270.783 0.151997C273.727 0.151997 276.511 0.375998 279.135 0.823999C281.759 1.272 284.479 2.008 287.295 3.032C290.175 4.056 292.511 5.656 294.303 7.832C296.159 9.944 297.087 12.472 297.087 15.416C297.087 15.8 297.023 16.504 296.895 17.528C310.271 6.584 320.831 1.112 328.575 1.112C331.775 1.112 333.375 2.456 333.375 5.144C333.375 8.216 331.551 12.248 327.903 17.24C324.319 22.232 319.935 26.712 314.751 30.68C309.631 34.584 305.183 36.536 301.407 36.536C296.991 36.536 294.623 34.264 294.303 29.72C294.303 28.696 294.623 28.184 295.263 28.184C295.711 28.184 296.127 28.664 296.511 29.624C296.959 30.584 297.759 31.64 298.911 32.792C300.127 33.88 301.375 34.424 302.655 34.424C305.599 34.424 309.119 32.44 313.215 28.472C317.311 24.504 320.735 20.28 323.487 15.8C326.303 11.256 327.711 7.992 327.711 6.008C327.711 4.59999 326.975 3.89599 325.503 3.89599C319.039 3.89599 309.151 9.72 295.839 21.368C293.727 27.448 289.631 35.032 283.551 44.12C277.471 53.144 271.167 61.048 264.639 67.832C258.111 74.616 253.343 78.008 250.335 78.008C248.799 78.008 248.031 77.304 248.031 75.896ZM252.159 75.32C255.295 75.32 260.927 69.944 269.055 59.192C277.183 48.44 283.583 38.136 288.255 28.28C278.783 37.368 270.335 46.648 262.911 56.12C255.487 65.528 251.775 71.768 251.775 74.84C251.775 75.16 251.903 75.32 252.159 75.32ZM317.406 55.064C317.854 54.744 318.27 54.584 318.654 54.584C319.038 54.584 319.23 54.808 319.23 55.256V55.448C314.43 59.288 309.694 62.904 305.022 66.296C300.35 69.624 296.926 71.288 294.75 71.288C293.15 71.288 292.35 70.424 292.35 68.696C292.35 66.968 293.118 65.24 294.654 63.512C296.19 61.784 297.694 60.28 299.166 59C300.702 57.72 301.47 56.888 301.47 56.504C301.47 56.056 301.214 55.576 300.702 55.064C300.254 54.488 299.87 54.104 299.549 53.912C298.462 55 296.094 56.984 292.446 59.864L292.062 58.424C296.094 55.224 298.43 53.08 299.07 51.992V51.128C299.07 49.528 299.23 48.44 299.549 47.864C299.87 47.288 300.638 46.488 301.854 45.464C303.07 44.44 303.902 43.928 304.35 43.928C304.798 43.928 305.182 44.088 305.502 44.408C305.886 44.728 306.078 45.048 306.078 45.368C306.078 45.688 305.95 46.072 305.694 46.52C305.502 46.904 305.278 47.256 305.022 47.576C304.83 47.832 304.542 48.184 304.158 48.632C303.774 49.016 303.518 49.304 303.39 49.496C303.326 49.624 303.23 49.88 303.102 50.264C303.038 50.648 302.846 50.968 302.526 51.224C302.206 51.48 302.046 51.8 302.046 52.184C302.046 52.568 302.302 53.432 302.814 54.776C303.326 56.056 303.582 57.016 303.582 57.656C303.582 58.232 302.398 59.672 300.03 61.976C297.662 64.216 296.478 66.04 296.478 67.448C296.478 68.216 296.83 68.6 297.534 68.6C298.43 68.6 300.094 67.8 302.526 66.2L303.678 65.432C307.838 62.552 311.742 59.64 315.39 56.696L317.406 55.064ZM327.265 59.48C326.881 59.48 326.689 59.352 326.689 59.096C326.689 58.776 326.913 58.424 327.361 58.04C329.473 56.312 330.529 54.744 330.529 53.336C330.529 52.44 329.729 51.928 328.129 51.8C325.249 51.864 321.793 53.944 317.761 58.04C313.793 62.136 311.809 65.208 311.809 67.256C311.809 67.96 312.193 68.312 312.961 68.312C313.793 68.312 314.881 67.768 316.225 66.68C317.441 65.912 319.713 63.992 323.041 60.92C323.809 60.152 324.545 59.768 325.249 59.768C326.145 59.768 326.593 60.184 326.593 61.016C326.593 61.336 326.497 61.592 326.305 61.784C326.113 61.976 325.761 62.392 325.249 63.032C324.737 63.608 324.289 64.152 323.905 64.664C322.753 66.328 322.177 67.416 322.177 67.928C322.177 69.208 322.689 69.848 323.713 69.848C325.057 69.848 327.585 68.632 331.297 66.2C335.009 63.704 338.401 61.208 341.473 58.712L346.081 55.064C346.529 54.744 346.945 54.584 347.329 54.584C347.713 54.584 347.905 54.808 347.905 55.256V55.448C342.977 59.608 337.761 63.512 332.257 67.16C326.817 70.808 323.233 72.632 321.505 72.632C319.457 72.632 318.433 71.544 318.433 69.368C318.433 68.856 318.529 68.376 318.721 67.928C318.913 67.48 319.009 67.16 319.009 66.968C319.009 66.776 318.945 66.648 318.817 66.584C318.625 66.584 317.377 67.448 315.073 69.176C312.833 70.904 310.849 71.768 309.121 71.768C307.457 71.768 306.625 70.872 306.625 69.08C306.625 67.288 307.809 64.888 310.177 61.88C312.609 58.808 315.841 56.024 319.873 53.528C323.905 51.032 327.841 49.784 331.681 49.784C332.577 49.784 333.313 50.008 333.889 50.456C334.529 50.904 334.849 51.608 334.849 52.568C334.849 53.464 333.921 54.84 332.065 56.696C330.209 58.552 328.609 59.48 327.265 59.48ZM356.43 42.008C357.07 42.008 357.55 42.2 357.87 42.584C358.254 42.968 358.446 43.512 358.446 44.216C358.446 44.92 357.966 45.816 357.006 46.904C356.046 47.992 355.214 48.536 354.51 48.536C353.806 48.536 353.294 48.344 352.974 47.96C352.654 47.512 352.494 47.032 352.494 46.52C352.494 45.944 353.006 45.048 354.03 43.832C355.054 42.616 355.854 42.008 356.43 42.008ZM364.398 54.968C364.91 54.648 365.294 54.488 365.55 54.488C365.87 54.488 366.03 54.68 366.03 55.064V55.352C366.286 55.352 364.558 56.76 360.846 59.576C357.198 62.392 353.262 65.208 349.038 68.024C344.878 70.84 342.254 72.248 341.166 72.248C339.31 72.248 338.382 71.48 338.382 69.944C338.382 68.088 339.982 64.6 343.182 59.48C346.382 54.296 348.718 51.704 350.19 51.704C351.278 51.704 351.822 52.12 351.822 52.952C351.822 53.784 350.35 56.056 347.406 59.768C344.462 63.48 342.99 66.136 342.99 67.736C342.99 68.632 343.31 69.08 343.95 69.08C344.654 69.08 346.35 68.184 349.038 66.392C353.838 63.192 358.254 59.96 362.286 56.696L364.398 54.968ZM383.26 55.064C383.772 54.744 384.188 54.584 384.508 54.584C384.892 54.584 385.084 54.808 385.084 55.256V55.448C380.156 59.608 374.94 63.512 369.436 67.16C363.996 70.808 360.54 72.632 359.068 72.632C357.596 72.632 356.348 72.344 355.324 71.768C354.364 71.256 353.884 70.648 353.884 69.944C353.884 69.24 354.076 68.664 354.46 68.216C354.844 67.704 355.196 67.448 355.516 67.448C355.836 67.448 356.348 67.96 357.052 68.984C357.82 69.944 358.556 70.424 359.26 70.424C360.732 70.424 361.884 68.856 362.716 65.72C363.548 62.584 363.964 60.44 363.964 59.288C363.964 58.072 363.868 57.464 363.676 57.464C363.548 57.464 363.42 57.528 363.292 57.656L360.508 59.864L360.124 58.424C364.156 55.224 366.492 53.08 367.132 51.992C367.516 50.968 368.06 50.456 368.764 50.456C369.212 50.456 369.436 50.616 369.436 50.936C369.436 51.256 369.212 51.96 368.764 53.048C368.316 54.072 367.708 56.44 366.94 60.152C366.236 63.864 365.884 66.008 365.884 66.584C365.884 67.16 366.044 67.448 366.364 67.448C370.844 64.696 375.58 61.272 380.572 57.176L383.26 55.064ZM408.049 55.064C408.497 54.744 408.913 54.584 409.297 54.584C409.681 54.584 409.873 54.808 409.873 55.256V55.448C403.217 60.952 397.681 65.08 393.265 67.832C388.849 70.584 384.849 71.96 381.265 71.96C378.385 71.96 376.945 70.552 376.945 67.736C376.945 63.576 379.057 59.32 383.281 54.968C387.505 50.552 391.057 48.344 393.937 48.344C395.537 48.344 396.337 49.24 396.337 51.032C396.017 54.552 390.961 59.288 381.169 65.24V66.2C381.169 68.312 382.257 69.368 384.433 69.368C386.673 69.368 389.073 68.632 391.633 67.16C396.625 64.216 401.297 60.856 405.649 57.08L408.049 55.064ZM391.441 51.32C390.033 51.32 388.209 52.504 385.969 54.872C383.793 57.24 382.321 59.928 381.553 62.936C384.625 61.08 387.217 59.128 389.329 57.08C391.441 54.968 392.497 53.496 392.497 52.664C392.497 51.768 392.145 51.32 391.441 51.32Z" fill="black"/>
</svg>
