<?xml version="1.0" encoding="UTF-8" standalone="no"?>
<!-- Created with Inkscape (http://www.inkscape.org/) -->

<svg
   version="1.1"
   id="svg1"
   width="90"
   height="90"
   viewBox="0 0 89.999999 89.999999"
   sodipodi:docname="logo3.svg"
   inkscape:version="1.3.2 (091e20e, 2023-11-25, custom)"
   xmlns:inkscape="http://www.inkscape.org/namespaces/inkscape"
   xmlns:sodipodi="http://sodipodi.sourceforge.net/DTD/sodipodi-0.dtd"
   xmlns="http://www.w3.org/2000/svg"
   xmlns:svg="http://www.w3.org/2000/svg">
  <defs
     id="defs1" />
  <sodipodi:namedview
     id="namedview1"
     pagecolor="#ffffff"
     bordercolor="#000000"
     borderopacity="0.25"
     inkscape:showpageshadow="2"
     inkscape:pageopacity="0.0"
     inkscape:pagecheckerboard="0"
     inkscape:deskcolor="#d1d1d1"
     inkscape:zoom="7.0333647"
     inkscape:cx="34.19416"
     inkscape:cy="47.48794"
     inkscape:window-width="1920"
     inkscape:window-height="991"
     inkscape:window-x="-9"
     inkscape:window-y="-9"
     inkscape:window-maximized="1"
     inkscape:current-layer="g1" />
  <g
     inkscape:groupmode="layer"
     inkscape:label="Image"
     id="g1">
    <path
       style="fill:#c4a832;fill-opacity:1;stroke-width:45.3423;stroke-dasharray:none;paint-order:stroke fill markers"
       id="path48"
       d="M 85.194368,4.3688635 C 83.542678,3.4929029 81.861363,2.4691006 79.951538,2.1050452 79.645311,2.0466715 79.333008,2.0192371 79.023744,1.976333 78.064815,1.997272 77.675026,1.953478 76.716474,2.2055938 75.120451,2.6253756 73.642639,3.454385 72.312649,4.3416073 c -0.541205,0.3610308 -1.05083,0.7601644 -1.576246,1.1402466 -3.949441,3.2099368 -6.858091,7.2707301 -9.662237,11.3223801 -3.438233,5.086247 -6.480701,10.381279 -9.421291,15.718696 -2.831008,5.234121 -5.606064,10.493431 -8.398428,15.744886 -2.036513,3.784843 -4.082376,7.570429 -6.364182,11.237995 -0.411569,0.661517 -0.838898,1.314706 -1.258348,1.97206 -1.946963,2.937372 -4.030316,5.812782 -6.366245,8.5056 -0.426023,0.491112 -0.874369,0.965636 -1.311556,1.448453 -1.655009,1.708359 -3.304031,3.451451 -5.261047,4.881631 -1.1026,0.805777 -1.576596,1.040008 -2.755743,1.723245 -1.698672,0.894161 -3.53,1.651929 -5.473603,1.966669 -1.135666,0.183905 -1.482052,0.129975 -2.61846,0.113262 -0.781077,-0.09549 -1.680216,-0.160174 -2.4256592,-0.428696 -0.381653,-0.137478 -1.490703,-0.530466 -1.080673,-0.538576 0.504667,-0.01 0.981342,0.792781 1.398329,0.532295 C 10.091207,79.460649 9.1264738,79.129879 8.8496708,78.830406 8.5670228,78.524613 8.3244558,78.18956 8.0618478,77.869139 6.8166371,76.132401 6.0185639,74.150222 5.6388198,72.10404 5.5610889,71.685202 5.5210777,71.261222 5.4622055,70.839813 5.2641302,69.160875 5.4063073,67.491536 5.8855167,65.86176 c 0.2925745,-0.995035 0.4725685,-1.327512 0.8866928,-2.275143 0.6180043,-1.264353 1.5148233,-2.410632 2.8139213,-3.157359 0.7225852,-0.415347 1.0146382,-0.454385 1.8129532,-0.694363 0.962039,-0.193014 1.971416,-0.267321 2.937915,-0.03354 0.805805,0.194909 1.558873,0.573806 2.278359,0.94241 0.381034,0.195209 -0.773002,-0.37197 -1.159501,-0.557954 0.416777,0.265166 0.839678,0.52244 1.250335,0.795499 1.387445,0.92256 2.715802,1.91986 4.07404,2.877496 1.50857,1.063629 1.440538,1.004365 2.993452,2.044026 3.87124,2.558299 7.995426,4.77851 12.222934,6.803028 3.315368,1.57789 6.790058,2.838114 10.305034,3.985405 3.042849,0.92303 6.166987,1.648353 9.338223,2.090288 0.638285,0.08895 1.280724,0.150805 1.921086,0.226204 2.701919,0.217821 5.415604,-0.02821 8.077226,-0.463902 0.654713,-0.107167 1.314196,-0.201586 1.955496,-0.363029 0.647431,-0.162986 1.267852,-0.405341 1.90178,-0.60801 0.606218,-0.269699 1.234784,-0.500817 1.818656,-0.809094 2.332897,-1.231742 4.393888,-3.120693 5.974219,-5.102645 0.397763,-0.498849 0.741741,-1.031853 1.112611,-1.547778 0.81619,-1.419633 1.162457,-1.873556 1.70285,-3.419176 0.687025,-1.965008 0.996193,-4.076193 1.068713,-6.132816 0.02579,-0.731544 -0.01529,-1.463786 -0.0229,-2.195678 -0.191371,-3.127722 -0.742175,-6.169375 -1.97886,-9.102543 -0.864668,-2.050817 -1.319132,-2.693084 -2.446987,-4.63942 -1.97242,-3.13124 -4.412516,-5.994379 -7.243645,-8.512707 -0.713848,-0.634979 -1.438805,-1.261803 -2.206387,-1.841853 -0.775174,-0.585789 -1.610881,-1.100977 -2.416322,-1.651466 -3.966151,-2.392016 -8.054383,-4.709137 -12.65529,-5.909109 -2.170208,-0.566019 -2.821883,-0.586434 -5.022266,-0.880157 -2.925109,-0.255827 -5.892742,-0.06019 -8.716887,0.709932 -1.524726,0.415777 -2.085025,0.711066 -3.507205,1.317425 -1.870963,0.927225 -3.674958,2.039924 -5.100256,3.50471 -0.82573,0.848606 -0.894864,1.067606 -1.506052,2.032426 -0.843841,1.602948 -1.243749,3.362741 -1.152211,5.142143 0.01589,0.30986 0.06738,0.617331 0.101097,0.925997 0.329989,1.618085 1.234818,3.021581 2.298198,4.319644 0.442577,0.492893 0.899511,0.98761 1.442166,1.392821 0.15511,0.115824 0.316591,0.225831 0.488593,0.319529 2.662098,1.450163 1.901536,1.137407 3.333468,1.686667 0.785129,0.26998 1.615694,0.34457 2.447378,0.348686 0.644268,-0.01119 1.285943,-0.07144 1.914878,-0.199582 0.550769,-0.125291 1.045117,-0.37272 1.508658,-0.665389 0.362849,-0.240003 0.637717,-0.556705 0.891921,-0.889004 0,0 -2.380192,-1.258292 -2.380192,-1.258292 v 0 c -0.254206,0.3323 -0.529074,0.649003 -0.891923,0.889005 -0.463541,0.29267 -0.957889,0.540106 -1.508658,0.665388 -0.628936,0.128143 -1.270608,0.188282 -1.914876,0.199582 -0.831686,-0.0041 -1.662251,-0.0787 -2.44738,-0.348685 -0.958034,-0.367482 -1.424224,-0.568199 1.42692,0.829915 0.176438,0.08651 -0.333492,-0.203711 -0.488595,-0.319528 -0.542653,-0.405211 -0.999587,-0.899928 -1.442161,-1.392822 -1.063385,-1.298062 -1.968209,-2.701559 -2.298201,-4.319643 -0.0337,-0.308666 -0.08515,-0.616138 -0.101097,-0.925999 -0.09155,-1.779402 0.30837,-3.539194 1.152211,-5.142141 0.611189,-0.964821 0.680322,-1.18382 1.506052,-2.032426 1.425298,-1.464788 3.229294,-2.577486 5.100254,-3.50471 1.42218,-0.60636 1.982481,-0.901648 3.507206,-1.317426 2.824145,-0.770117 5.79178,-0.965759 8.716886,-0.709931 0.823451,0.109923 1.653032,0.186523 2.47035,0.329759 1.742074,0.3053 3.505208,0.755733 5.158168,1.345314 0.885234,0.315747 1.733694,0.711941 2.602881,1.063084 0.05435,0.02197 0.117003,0.02728 0.167423,0.05609 0.845985,0.483357 1.678906,0.985625 2.518358,1.478437 0.805441,0.550488 1.641148,1.065677 2.416322,1.651464 0.767582,0.580052 1.492539,1.206874 2.206387,1.841853 2.831129,2.51833 5.271227,5.381471 7.24365,8.512711 1.127853,1.946334 1.582317,2.588601 2.446984,4.639418 1.236685,2.933168 1.787494,5.974821 1.978861,9.102544 0.0077,0.731893 0.04869,1.464133 0.0229,2.195677 -0.07252,2.056624 -0.381692,4.167806 -1.068712,6.132815 -0.540393,1.545619 -0.886662,1.999546 -1.702853,3.419177 -0.370869,0.515925 -0.714847,1.048929 -1.112608,1.547777 -1.580331,1.981953 -3.641325,3.870904 -5.974219,5.102647 -0.583872,0.308278 -1.212441,0.539394 -1.818659,0.809092 -0.633928,0.20267 -1.254346,0.445025 -1.901782,0.608011 -0.641297,0.16144 -1.30078,0.255855 -1.955494,0.363029 -2.661621,0.435695 -5.375306,0.681723 -8.077225,0.463901 -0.640362,-0.0754 -1.282801,-0.137254 -1.921086,-0.226203 -3.171237,-0.441935 -6.295372,-1.167258 -9.338223,-2.090289 -3.514974,-1.147288 -6.989664,-2.407514 -10.305034,-3.985403 -0.572025,-0.273938 -1.130582,-0.572869 -1.716072,-0.821813 -0.247689,-0.105319 0.934051,0.518599 0.699987,0.389784 -2.200477,-1.211004 -4.371964,-2.467009 -6.446469,-3.854418 -1.552915,-1.03966 -1.484884,-0.980398 -2.993452,-2.044028 -1.35824,-0.957636 -2.686597,-1.954934 -4.074042,-2.877495 -0.410655,-0.273059 -0.833556,-0.530331 -1.250333,-0.795498 -1.200295,-0.652877 -2.391797,-1.319502 -3.60089,-1.958631 -0.678604,-0.358714 -1.508902,-0.756292 -2.278356,-0.94241 -0.966499,-0.233778 -1.9758762,-0.159468 -2.9379172,0.03355 -0.798312,0.23998 -1.090365,0.279015 -1.81295,0.694361 C 5.9068434,59.9177 5.0100245,61.063981 4.39202,62.328334 3.9778955,63.275965 3.7979013,63.60844 3.505327,64.603477 3.0261176,66.233253 2.8839403,67.902593 3.082016,69.58153 c 0.058871,0.421409 0.098883,0.845389 0.1766149,1.264227 0.3797441,2.04618 1.1778173,4.02836 2.4230279,5.765097 0.4036335,0.492498 1.1138229,1.437889 1.675412,1.812617 1.077555,0.719014 2.228954,1.340841 3.3620582,1.984289 0.348539,0.197922 0.69902,0.401097 1.080675,0.538576 0.745442,0.268522 1.644579,0.3332 2.425657,0.42869 1.136408,0.01671 1.482793,0.07064 2.61846,-0.113262 1.943601,-0.314738 3.774929,-1.072506 5.473604,-1.966668 1.179146,-0.683236 1.653142,-0.917468 2.755742,-1.723244 1.957017,-1.43018 3.606039,-3.173272 5.261048,-4.881632 0.437185,-0.482817 0.885532,-0.957341 1.311555,-1.448451 2.335929,-2.69282 4.419282,-5.568229 6.366245,-8.505601 0.41945,-0.657354 0.84678,-1.310544 1.258348,-1.97206 2.281806,-3.667567 4.32767,-7.453153 6.364182,-11.237995 2.792364,-5.251456 5.567418,-10.510765 8.398428,-15.744888 2.940591,-5.337417 5.983058,-10.632449 9.421291,-15.718695 2.804146,-4.05165 5.712797,-8.1124423 9.662237,-11.3223793 0.525415,-0.380082 1.035042,-0.779216 1.576245,-1.140246 1.329993,-0.8872227 2.807802,-1.7162323 4.403827,-2.1360139 0.958552,-0.2521158 1.348338,-0.2083216 2.307269,-0.2292608 0.881919,0.122348 0.919248,0.09408 1.744791,0.3325966 1.076801,0.3111079 4.066164,1.7387342 -0.334555,-0.4566497 z" />
    <path
       style="fill:#867223;fill-opacity:1;stroke-width:37.7953;stroke-dasharray:none;paint-order:stroke fill markers"
       id="path55"
       d="m 15.432476,10.772212 c 0.345773,1.006675 0.664008,2.022911 0.981927,3.038696 0.523063,1.699809 1.002198,3.412599 1.490074,5.122703 0.294289,1.041702 0.149981,0.527632 0.433061,1.542171 0,0 1.898502,1.096101 1.898502,1.096101 v 0 c -0.28308,-1.014539 -0.138771,-0.50047 -0.433061,-1.542171 -0.487876,-1.710105 -0.967011,-3.422895 -1.490074,-5.122703 -0.317919,-1.015785 -0.636154,-2.032021 -0.981927,-3.038696 z" />
    <path
       style="fill:#c4a832;fill-opacity:1;stroke-width:37.7953;stroke-dasharray:none;paint-order:stroke fill markers"
       id="path56"
       d="m 15.585018,10.44122 c 0.563171,0.532835 1.176469,1.007679 1.795362,1.4731 1.066481,0.803594 2.205539,1.50248 3.338357,2.206869 1.646847,0.969822 3.238859,2.059518 4.972471,2.870694 0.110637,0.01825 0.219859,0.05898 0.33191,0.05474 0.671511,-0.02543 0.544869,-1.12473 0.543774,-1.531475 -0.08519,-1.598474 -0.304614,-3.186576 -0.509599,-4.773125 -0.213529,-1.5796301 -0.42435,-3.1596025 -0.624341,-4.7410076 -0.07292,-0.60223 -0.150665,-1.2038632 -0.225506,-1.805851 -0.04808,-0.3867404 -0.10379,-0.6667305 -0.009,-1.0425418 0.04602,-0.013708 0.09106,-0.050928 0.138071,-0.041124 0.07837,0.016344 0.282817,0.1501799 0.211398,0.1140024 -0.536375,-0.2717014 -1.035163,-0.6327465 -1.606328,-0.820605 -0.170926,-0.056218 0.239155,0.2690424 0.353001,0.4083805 0.333403,0.4080558 0.482222,0.6297663 0.795394,1.0648851 0.92036,1.3142829 1.753598,2.6861913 2.57914,4.0610667 0.775361,1.3114002 1.542595,2.6275477 2.31368,3.9414547 0.390701,0.642649 0.758418,1.303064 1.204674,1.910093 0.0863,0.117395 0.16988,0.237897 0.270012,0.343742 0.08256,0.08728 0.183518,0.155107 0.275276,0.23266 0.730763,0.399128 1.434861,0.85152 2.192287,1.197383 0.200517,0.09156 0.577047,-0.211217 0.673378,-0.29546 0.47529,-0.415652 0.815751,-0.973411 1.164186,-1.490769 0.825472,-1.290556 1.489294,-2.675637 2.11343,-4.0720194 0.513896,-1.1694769 0.972561,-2.3616961 1.446403,-3.5475876 0.199833,-0.4426538 0.408339,-1.2738299 1.062386,-1.1948431 0.09913,0.011972 0.190348,0.060391 0.285523,0.090587 -0.528895,-0.3048368 -1.04532,-0.6324133 -1.586685,-0.9145103 -0.125548,-0.065421 0.226331,0.1703881 0.334326,0.2619263 0.128545,0.1089563 0.25208,0.2237575 0.374849,0.339182 0.450655,0.4236938 0.857726,0.883481 1.268791,1.3448955 0.892908,1.0268054 1.705796,2.1191857 2.512109,3.2141891 0.663643,0.9315765 1.312246,1.8738055 1.951676,2.8221355 0.360142,0.519785 0.746231,1.070736 0.649366,1.738253 -0.01448,0.09981 -0.05039,0.195325 -0.07558,0.292988 -0.335432,0.71337 -1.04672,1.109746 -1.706434,1.481599 -0.944868,0.509019 -1.940096,0.914882 -2.928488,1.329848 -1.314505,0.539185 -2.636543,1.05972 -3.962684,1.569532 -1.677867,0.638722 -3.362505,1.259029 -5.054712,1.858664 -1.542459,0.551575 -3.094488,1.07509 -4.659298,1.559563 -1.202053,0.365591 -2.415814,0.690621 -3.635877,0.990031 -0.94058,0.230338 -1.890975,0.416119 -2.839991,0.607355 -0.758074,0.139132 -1.50778,0.316336 -2.250379,0.521779 -0.317317,0.09034 -0.635208,0.178593 -0.95337,0.265895 0,0 1.898502,1.096101 1.898502,1.096101 v 0 c 0.318163,-0.0873 0.636053,-0.175558 0.95337,-0.265896 0.742599,-0.205442 1.492306,-0.382647 2.250379,-0.521778 0.949016,-0.191236 1.899411,-0.377017 2.839991,-0.607355 1.220063,-0.29941 2.433824,-0.62444 3.635878,-0.990031 1.564809,-0.484473 3.116839,-1.007988 4.659298,-1.559563 1.692207,-0.599636 3.376844,-1.219942 5.054712,-1.858664 1.32614,-0.509812 2.648178,-1.030347 3.962683,-1.569532 0.988392,-0.414967 1.98362,-0.820829 2.928488,-1.329848 0.659714,-0.371853 1.371003,-0.768229 1.706434,-1.481599 0.02519,-0.09766 0.0611,-0.193174 0.07558,-0.292989 0.09686,-0.667517 -0.289225,-1.218467 -0.649367,-1.738252 -0.63943,-0.948331 -1.288033,-1.890559 -1.951676,-2.822136 C 44.665936,9.3012489 43.853048,8.2088686 42.960141,7.1820632 42.437668,6.5955957 41.917249,6.0071895 41.316501,5.4979857 40.551336,4.8494206 39.66765,4.4761889 38.771855,3.9583681 c -0.09518,-0.030196 -0.186394,-0.078615 -0.285524,-0.090587 -0.654047,-0.078987 -0.862552,0.7521893 -1.062385,1.1948431 -0.473843,1.1858916 -0.932507,2.3781107 -1.446403,3.5475876 -0.624137,1.3963822 -1.287958,2.7814632 -2.113431,4.0720202 -0.348434,0.517357 -0.688895,1.075116 -1.164185,1.490768 -0.108182,0.09461 -0.223536,0.186715 -0.355139,0.244459 -0.09838,0.04317 -0.401602,-0.01677 -0.318239,0.051 0.488347,0.396994 1.069812,0.663213 1.604718,0.994819 -0.09176,-0.07755 -0.192711,-0.145384 -0.275277,-0.23266 C 33.255859,15.124773 33.17228,15.00427 33.085978,14.886876 32.639722,14.279846 32.272005,13.619432 31.881304,12.976783 31.110219,11.662877 30.342985,10.346729 29.567625,9.0353291 28.742082,7.6604537 27.908844,6.2885453 26.988484,4.9742624 26.675312,4.5391435 26.526493,4.3174331 26.193091,3.9093773 26.079244,3.7700392 25.987513,3.6041587 25.840089,3.5009968 25.134206,3.0070444 24.382146,2.5825696 23.649414,2.1294001 23.41767,1.9860745 23.501595,1.9964607 23.299945,2.0565218 c -0.09479,0.3758113 -0.03908,0.6558014 0.009,1.0425418 0.07484,0.6019878 0.152588,1.203621 0.225506,1.805851 0.199991,1.5814051 0.410811,3.1613775 0.624341,4.7410078 0.204985,1.5865496 0.424413,3.1746516 0.509599,4.7731246 0.0011,0.406745 0.127737,1.506044 -0.543774,1.531476 -0.112051,0.0042 -0.221274,-0.03649 -0.33191,-0.05474 -0.916667,-0.428919 -0.580363,-0.287314 0.994294,0.630652 0.16961,0.09888 -0.339236,-0.197741 -0.507943,-0.298153 C 23.962359,16.039786 23.506011,15.760681 23.193913,15.570037 23.001616,15.452573 22.809464,15.334872 22.617239,15.21729 21.484421,14.512901 20.345364,13.814015 19.278883,13.010421 18.65999,12.545 18.046691,12.070156 17.48352,11.537321 Z" />
  </g>
</svg>
