<svg width="501" height="104" viewBox="0 0 501 104" fill="none" xmlns="http://www.w3.org/2000/svg">
<path d="M9.064 78.736C8.424 78.736 7.4 78.64 5.992 78.448C4.648 78.256 3.4 77.84 2.248 77.2C1.096 76.56 0.52 75.568 0.52 74.224C0.52 73.392 0.712 72.752 1.096 72.304C1.352 71.984 1.608 71.824 1.864 71.824C2.12 71.824 2.184 71.984 2.056 72.304C1.864 73.264 2.216 74.16 3.112 74.992C4.008 75.888 4.904 76.464 5.8 76.72C7.08 77.04 8.2 77.2 9.16 77.2C11.976 77.2 14.504 76.4 16.744 74.8C19.048 73.2 21.096 71.344 22.888 69.232C20.456 67.76 18.312 66 16.456 63.952C14.664 61.84 13.768 59.504 13.768 56.944C13.768 55.92 13.896 54.992 14.152 54.16C14.792 51.984 16.168 50.256 18.28 48.976C18.92 48.592 19.592 48.336 20.296 48.208C21.064 48.016 21.832 47.92 22.6 47.92C25.096 47.92 26.856 48.496 27.88 49.648V49.744C27.88 49.872 27.752 50.032 27.496 50.224C27.304 50.416 27.144 50.448 27.016 50.32C26.568 49.68 25.768 49.36 24.616 49.36C23.208 49.36 21.832 49.84 20.488 50.8C19.208 51.76 18.376 52.944 17.992 54.352C17.608 55.568 17.416 56.784 17.416 58C17.416 60.176 18.024 62.096 19.24 63.76C20.52 65.36 22.056 66.768 23.848 67.984C24.36 67.344 24.808 66.704 25.192 66.064C25.64 65.424 26.088 64.784 26.536 64.144C28.456 61.2 30.344 57.84 32.2 54.064C34.056 50.288 35.976 46.416 37.96 42.448C39.944 38.416 42.024 34.512 44.2 30.736C46.44 26.96 48.872 23.6 51.496 20.656C54.12 17.648 57 15.344 60.136 13.744C62.184 12.656 64.136 12.112 65.992 12.112C67.016 12.112 67.944 12.24 68.776 12.496C69.032 12.56 69.096 12.72 68.968 12.976C68.904 13.232 68.744 13.328 68.488 13.264C68.232 13.136 67.944 13.072 67.624 13.072C67.368 13.072 67.08 13.072 66.76 13.072C63.432 13.072 59.944 15.216 56.296 19.504C53.48 22.832 51.048 26.384 49 30.16C46.952 33.872 45.064 37.712 43.336 41.68C41.608 45.584 39.816 49.456 37.96 53.296C36.168 57.136 34.024 60.816 31.528 64.336C30.888 65.296 30.184 66.224 29.416 67.12C28.712 68.016 27.976 68.88 27.208 69.712C28.104 70.096 29.032 70.416 29.992 70.672C31.016 70.928 31.944 71.152 32.776 71.344C35.656 71.92 38.6 72.208 41.608 72.208C45.768 72.208 49.8 71.728 53.704 70.768C57.672 69.872 61.16 68.624 64.168 67.024C68.264 64.848 71.912 61.84 75.112 58C78.312 54.16 80.84 49.904 82.696 45.232C84.616 40.56 85.576 35.92 85.576 31.312C85.576 26.704 84.488 22.384 82.312 18.352C80.136 14.256 76.52 10.928 71.464 8.368C68.328 6.768 64.84 5.616 61 4.912C57.224 4.144 53.416 3.75999 49.576 3.75999C44.136 3.75999 38.856 4.65599 33.736 6.44799C28.68 8.17599 24.552 10.544 21.352 13.552C19.688 15.152 18.184 17.296 16.84 19.984C15.56 22.672 14.92 25.328 14.92 27.952C14.92 28.528 14.952 29.104 15.016 29.68C15.08 30.256 15.208 30.832 15.4 31.408C15.976 33.2 17.064 34.576 18.664 35.536C20.328 36.432 22.216 36.88 24.328 36.88C25.928 36.88 27.592 36.592 29.32 36.016C29.384 36.016 29.416 36.016 29.416 36.016C29.48 35.952 29.544 35.92 29.608 35.92C29.736 35.92 29.8 35.984 29.8 36.112C29.8 36.432 29.608 36.656 29.224 36.784C28.328 37.04 27.368 37.264 26.344 37.456C25.384 37.648 24.424 37.744 23.464 37.744C21.416 37.744 19.432 37.392 17.512 36.688C15.592 35.92 14.024 34.736 12.808 33.136C11.656 31.536 11.08 29.488 11.08 26.992C11.08 25.008 11.368 23.152 11.944 21.424C12.52 19.696 13.32 18.064 14.344 16.528C16.456 13.392 19.432 10.8 23.272 8.752C27.176 6.64 31.464 5.072 36.136 4.048C40.872 2.96 45.544 2.41599 50.152 2.41599C54.056 2.41599 57.96 2.8 61.864 3.568C65.768 4.272 69.48 5.35999 73 6.832C79.4 9.584 84.008 13.296 86.824 17.968C89.704 22.576 91.144 27.504 91.144 32.752C91.144 37.616 90.056 42.48 87.88 47.344C85.768 52.144 82.792 56.528 78.952 60.496C75.176 64.4 70.76 67.504 65.704 69.808C62.568 71.216 59.144 72.272 55.432 72.976C51.784 73.68 48.072 74.032 44.296 74.032C42.12 74.032 39.976 73.904 37.864 73.648C35.752 73.456 33.672 73.136 31.624 72.688C30.792 72.496 29.896 72.24 28.936 71.92C27.976 71.664 27.016 71.312 26.056 70.864C24.904 71.888 23.688 72.88 22.408 73.84C21.192 74.864 19.88 75.728 18.472 76.432C17 77.136 15.464 77.68 13.864 78.064C12.328 78.512 10.728 78.736 9.064 78.736ZM113.677 70.672C111.629 70.672 110.221 70.032 109.453 68.752C108.685 67.408 108.301 65.936 108.301 64.336C108.301 64.016 108.333 63.472 108.397 62.704C108.525 61.872 108.653 61.104 108.781 60.4C107.885 61.616 106.797 62.96 105.517 64.432C104.301 65.904 103.053 67.152 101.773 68.176C99.725 69.84 97.869 70.672 96.205 70.672C94.605 70.672 93.357 70 92.461 68.656C91.629 67.312 91.213 65.616 91.213 63.568C91.213 60.944 91.789 58.288 92.941 55.6C94.093 52.912 95.597 50.384 97.453 48.016C99.373 45.584 101.485 43.504 103.789 41.776C105.133 40.816 106.765 40.048 108.685 39.472C110.669 38.832 112.653 38.512 114.637 38.512C116.877 38.512 118.829 38.864 120.493 39.568C122.221 40.208 123.405 41.136 124.045 42.352C122.701 44.08 121.325 46.224 119.917 48.784C118.509 51.28 117.293 53.552 116.269 55.6C115.565 57.008 114.797 58.768 113.965 60.88C113.133 62.928 112.717 64.688 112.717 66.16C112.717 66.8 112.877 67.44 113.197 68.08C113.517 68.72 114.125 69.04 115.021 69.04C116.045 69.04 117.037 68.656 117.997 67.888C118.957 67.12 119.757 66.352 120.397 65.584C121.869 63.984 123.213 62.224 124.429 60.304C125.645 58.384 126.861 56.336 128.077 54.16C128.269 53.904 128.461 53.776 128.653 53.776C128.909 53.776 129.037 53.968 129.037 54.352C129.037 54.672 128.973 54.928 128.845 55.12C127.757 57.232 126.541 59.344 125.197 61.456C123.853 63.568 122.253 65.552 120.397 67.408C119.501 68.304 118.445 69.072 117.229 69.712C116.013 70.352 114.829 70.672 113.677 70.672ZM98.317 67.696C99.533 67.696 100.845 67.056 102.253 65.776C103.725 64.432 105.133 62.832 106.477 60.976C107.885 59.056 109.133 57.232 110.221 55.504C111.373 53.712 112.269 52.336 112.909 51.376C114.253 49.264 115.501 47.504 116.653 46.096C117.805 44.688 119.597 43.6 122.029 42.832C122.157 42.832 122.253 42.832 122.317 42.832C122.445 42.768 122.573 42.736 122.701 42.736C122.125 41.84 121.165 41.168 119.821 40.72C118.477 40.272 117.165 40.048 115.885 40.048C113.901 40.048 111.981 40.592 110.125 41.68C108.269 42.768 106.573 44.144 105.037 45.808C103.565 47.536 102.125 49.424 100.717 51.472C99.309 53.52 98.157 55.6 97.261 57.712C96.429 59.824 96.013 61.84 96.013 63.76C96.013 64.784 96.173 65.712 96.493 66.544C96.877 67.312 97.485 67.696 98.317 67.696ZM145.206 70.576C143.35 70.576 141.878 70 140.79 68.848C139.766 67.696 139.254 66.256 139.254 64.528C139.254 63.696 139.414 62.736 139.734 61.648C140.63 58.832 142.038 56.048 143.958 53.296C145.942 50.48 147.574 47.696 148.854 44.944C149.302 44.048 149.526 43.248 149.526 42.544C149.526 41.84 149.302 41.328 148.854 41.008C148.47 40.624 147.99 40.432 147.414 40.432C146.582 40.432 145.526 40.784 144.246 41.488C143.03 42.128 141.622 43.376 140.022 45.232C139.062 46.384 137.974 47.792 136.758 49.456C135.542 51.12 134.55 52.624 133.782 53.968C132.502 56.144 131.35 58.352 130.326 60.592C129.302 62.768 128.406 64.784 127.638 66.64C126.998 68.112 126.23 69.072 125.334 69.52C124.438 69.904 123.574 70.064 122.742 70C121.91 69.936 121.27 69.936 120.822 70C122.614 66.48 124.374 62.768 126.102 58.864C127.83 54.96 129.302 51.056 130.518 47.152C131.094 45.36 131.574 43.632 131.958 41.968C132.342 40.24 132.502 39.12 132.438 38.608V38.416C132.438 37.904 132.694 37.776 133.206 38.032C134.038 38.48 134.614 39.152 134.934 40.048C135.254 40.88 135.414 41.84 135.414 42.928C135.414 44.144 135.254 45.456 134.934 46.864C134.614 48.208 134.23 49.424 133.782 50.512C134.614 49.36 135.51 48.208 136.47 47.056C137.43 45.84 138.486 44.688 139.638 43.6C140.982 42.256 142.422 41.104 143.958 40.144C145.494 39.12 147.158 38.608 148.95 38.608C150.678 38.608 151.926 38.992 152.694 39.76C153.526 40.528 153.942 41.552 153.942 42.832C153.942 44.176 153.558 45.712 152.79 47.44C151.958 49.424 150.934 51.408 149.718 53.392C148.566 55.376 147.51 57.296 146.55 59.152C146.358 59.536 146.038 60.144 145.59 60.976C145.206 61.744 144.854 62.608 144.534 63.568C144.406 64.016 144.278 64.496 144.15 65.008C144.022 65.456 143.958 65.936 143.958 66.448C143.958 67.088 144.086 67.696 144.342 68.272C144.662 68.784 145.238 69.04 146.07 69.04C147.158 69.04 148.182 68.688 149.142 67.984C150.166 67.216 151.03 66.416 151.734 65.584C153.206 63.984 154.55 62.224 155.766 60.304C157.046 58.32 158.294 56.24 159.51 54.064C159.702 53.808 159.83 53.68 159.894 53.68C160.15 53.68 160.278 53.968 160.278 54.544C160.278 54.928 160.214 55.216 160.086 55.408C158.934 57.52 157.718 59.6 156.438 61.648C155.158 63.632 153.59 65.552 151.734 67.408C150.902 68.24 149.942 68.976 148.854 69.616C147.766 70.256 146.55 70.576 145.206 70.576ZM161.542 70.576C159.75 70.576 158.438 70 157.606 68.848C156.774 67.632 156.358 66.16 156.358 64.432C156.358 63.92 156.39 63.408 156.454 62.896C156.582 62.32 156.71 61.744 156.838 61.168C157.542 58.608 158.63 55.76 160.102 52.624C161.638 49.424 163.11 46.576 164.518 44.08C165.35 42.672 166.118 41.68 166.822 41.104C167.526 40.464 168.294 40.016 169.126 39.76C169.958 39.44 170.95 39.088 172.102 38.704C172.422 38.576 172.742 38.48 173.062 38.416C173.382 38.352 173.734 38.288 174.118 38.224C172.838 39.504 171.526 41.04 170.182 42.832C168.902 44.624 167.494 47.088 165.958 50.224C165.126 51.888 164.294 53.744 163.462 55.792C162.694 57.84 162.022 59.76 161.446 61.552C160.87 63.344 160.55 64.752 160.486 65.776C160.422 66.992 160.582 67.856 160.966 68.368C161.35 68.88 161.862 69.136 162.502 69.136C163.59 69.136 164.614 68.752 165.574 67.984C166.598 67.216 167.494 66.416 168.262 65.584C169.67 63.984 170.982 62.224 172.198 60.304C173.478 58.384 174.726 56.336 175.942 54.16C176.134 53.904 176.294 53.776 176.422 53.776C176.678 53.776 176.806 53.968 176.806 54.352C176.806 54.672 176.742 54.928 176.614 55.12C175.462 57.232 174.246 59.344 172.966 61.456C171.686 63.568 170.118 65.552 168.262 67.408C167.43 68.24 166.438 68.976 165.286 69.616C164.198 70.256 162.95 70.576 161.542 70.576ZM173.254 32.848C172.55 32.848 171.942 32.592 171.43 32.08C170.982 31.568 170.758 30.96 170.758 30.256C170.758 29.36 171.11 28.56 171.814 27.856C172.582 27.152 173.414 26.736 174.31 26.608C175.014 26.608 175.59 26.864 176.038 27.376C176.55 27.824 176.806 28.432 176.806 29.2C176.806 30.032 176.454 30.864 175.75 31.696C175.046 32.464 174.214 32.848 173.254 32.848ZM184.57 70.768C180.858 70.768 178.234 69.808 176.698 67.888C175.93 67.056 175.386 66.064 175.066 64.912C174.746 63.76 174.586 62.576 174.586 61.36C174.586 59.824 174.778 58.288 175.162 56.752C175.546 55.152 176.026 53.68 176.602 52.336C177.498 50.224 178.682 48.112 180.154 46C181.626 43.824 183.386 42 185.434 40.528C187.546 39.056 189.85 38.32 192.346 38.32C194.01 38.32 195.322 38.736 196.282 39.568C197.242 40.4 197.722 41.68 197.722 43.408C197.722 45.392 197.114 47.408 195.898 49.456C194.682 51.44 193.146 53.104 191.29 54.448C189.434 55.792 187.514 56.464 185.53 56.464C183.738 56.464 182.17 55.824 180.826 54.544C180.442 55.568 180.122 56.72 179.866 58C179.61 59.216 179.482 60.464 179.482 61.744C179.482 63.728 179.866 65.456 180.634 66.928C181.466 68.4 182.938 69.136 185.05 69.136C186.586 69.136 188.058 68.752 189.466 67.984C190.938 67.152 192.25 66.16 193.402 65.008C194.682 63.664 195.898 62.224 197.05 60.688C198.202 59.152 199.322 57.36 200.41 55.312C200.538 55.12 200.634 55.024 200.698 55.024C200.954 55.024 201.082 55.312 201.082 55.888C201.082 56.272 200.954 56.688 200.698 57.136C199.738 58.864 198.618 60.624 197.338 62.416C196.058 64.144 194.746 65.648 193.402 66.928C192.186 68.08 190.874 69.008 189.466 69.712C188.058 70.416 186.426 70.768 184.57 70.768ZM181.306 53.104C181.754 53.744 182.266 54.224 182.842 54.544C183.482 54.8 184.122 54.928 184.762 54.928C186.298 54.928 187.898 54.352 189.562 53.2C191.226 51.984 192.57 50.576 193.594 48.976C194.042 48.272 194.426 47.344 194.746 46.192C195.13 45.04 195.322 43.952 195.322 42.928C195.322 42.032 195.13 41.264 194.746 40.624C194.426 39.92 193.754 39.568 192.73 39.568C191.578 39.568 190.202 40.272 188.602 41.68C187.066 43.088 185.594 44.912 184.186 47.152C183.738 47.92 183.226 48.816 182.65 49.84C182.138 50.864 181.69 51.952 181.306 53.104ZM205.375 70.576C203.071 70.576 201.471 69.904 200.575 68.56C199.679 67.216 199.231 65.52 199.231 63.472C199.231 61.36 199.551 59.056 200.191 56.56C200.895 54.064 201.695 51.632 202.591 49.264C203.551 46.896 204.447 44.816 205.279 43.024C206.175 41.232 206.783 39.984 207.103 39.28C208.255 36.848 209.663 34.096 211.327 31.024C213.055 27.952 214.975 24.816 217.087 21.616C219.263 18.416 221.535 15.376 223.903 12.496C226.335 9.616 228.831 7.12 231.391 5.008C234.015 2.896 236.607 1.456 239.167 0.687994C239.871 0.495996 240.511 0.399998 241.087 0.399998C242.175 0.399998 243.071 0.719997 243.775 1.36C244.543 1.936 244.927 2.96 244.927 4.432C244.927 5.456 244.671 6.736 244.159 8.272C243.327 10.512 241.919 13.008 239.935 15.76C237.951 18.448 235.615 21.264 232.927 24.208C230.239 27.088 227.391 29.936 224.383 32.752C221.439 35.568 218.559 38.192 215.743 40.624C212.927 43.056 210.431 45.136 208.255 46.864C207.679 48.08 207.135 49.264 206.623 50.416C206.175 51.568 205.759 52.688 205.375 53.776C205.183 54.352 204.895 55.216 204.511 56.368C204.127 57.52 203.775 58.8 203.455 60.208C203.135 61.616 202.975 62.96 202.975 64.24C202.975 65.52 203.231 66.64 203.743 67.6C204.255 68.496 205.183 68.944 206.527 68.944C207.615 68.944 208.607 68.592 209.503 67.888C210.463 67.184 211.327 66.416 212.095 65.584C214.783 62.512 217.183 58.96 219.295 54.928C219.551 54.48 219.743 54.256 219.871 54.256C219.999 54.256 220.063 54.448 220.063 54.832C220.063 55.408 219.935 56.016 219.679 56.656C218.463 58.896 217.343 60.784 216.319 62.32C215.359 63.856 213.951 65.552 212.095 67.408C211.263 68.24 210.271 68.976 209.119 69.616C208.031 70.256 206.783 70.576 205.375 70.576ZM209.311 44.656C211.295 42.928 213.599 40.88 216.223 38.512C218.847 36.08 221.535 33.488 224.287 30.736C227.039 27.984 229.631 25.232 232.063 22.48C234.559 19.728 236.703 17.136 238.495 14.704C240.351 12.272 241.599 10.16 242.239 8.368C242.815 6.704 243.103 5.424 243.103 4.528C243.103 2.864 242.367 2.032 240.895 2.032C240.063 2.032 239.071 2.352 237.919 2.992C236.767 3.568 235.711 4.336 234.751 5.296C233.151 6.832 231.263 9.04 229.087 11.92C226.975 14.736 224.735 17.968 222.367 21.616C219.999 25.264 217.663 29.072 215.359 33.04C213.119 37.008 211.103 40.88 209.311 44.656ZM255.846 76.816C255.59 76.88 255.302 76.912 254.982 76.912C254.662 76.912 254.342 76.912 254.022 76.912C251.846 76.912 249.766 76.528 247.782 75.76C245.797 74.992 244.485 73.52 243.845 71.344C243.653 70.768 243.557 70.128 243.557 69.424C243.557 67.696 244.101 66.128 245.189 64.72C245.445 64.464 245.701 64.304 245.957 64.24C246.149 64.112 246.245 64.24 246.245 64.624C246.438 67.76 247.526 70 249.51 71.344C251.558 72.752 253.958 73.456 256.71 73.456C259.334 73.456 262.022 72.912 264.774 71.824C267.59 70.736 270.086 69.264 272.262 67.408C275.078 64.912 277.67 62.032 280.038 58.768C282.47 55.504 284.774 52.208 286.95 48.88C287.718 47.6 288.518 46.32 289.35 45.04C290.182 43.76 291.014 42.512 291.846 41.296H267.942C267.814 41.296 267.75 41.232 267.75 41.104C267.75 40.784 267.974 40.4 268.422 39.952C268.934 39.44 269.35 39.184 269.67 39.184H293.19C296.006 35.024 298.918 30.96 301.926 26.992C304.934 22.96 307.974 19.28 311.046 15.952C314.822 11.984 318.758 8.816 322.854 6.44799C327.014 4.016 330.758 2.704 334.086 2.512C335.878 2.384 337.478 2.48 338.886 2.8C340.358 3.056 341.542 3.568 342.438 4.336C343.27 4.976 343.878 5.776 344.262 6.736C344.646 7.696 344.838 8.688 344.838 9.712C344.838 9.968 344.806 10.224 344.742 10.48C344.742 10.736 344.71 11.024 344.646 11.344C344.454 12.368 344.07 13.2 343.494 13.84C343.238 14.096 342.982 14.224 342.726 14.224C342.278 14.224 342.246 13.936 342.63 13.36C343.206 12.592 343.494 11.664 343.494 10.576C343.494 10 343.398 9.488 343.206 9.04C342.758 7.824 341.894 6.928 340.614 6.352C339.398 5.712 337.958 5.392 336.294 5.392C332.71 5.392 328.934 6.672 324.966 9.232C322.086 11.088 319.142 13.584 316.134 16.72C313.19 19.792 310.214 23.248 307.206 27.088C304.262 30.928 301.318 34.96 298.374 39.184H312.486C313.062 38.032 313.638 36.88 314.214 35.728C314.854 34.576 315.494 33.424 316.134 32.272C318.502 27.984 320.934 23.888 323.43 19.984C325.99 16.016 328.262 12.432 330.246 9.232C330.438 8.912 330.63 8.752 330.822 8.752C331.078 8.752 331.238 8.88 331.302 9.136C331.366 9.392 331.302 9.616 331.11 9.808C328.166 14.288 325.574 19.024 323.334 24.016C321.158 29.008 319.174 34.064 317.382 39.184H322.086C322.214 39.184 322.278 39.248 322.278 39.376C322.278 39.632 322.022 40.016 321.51 40.528C321.062 41.04 320.646 41.296 320.262 41.296H316.614C316.038 42.96 315.334 45.2 314.502 48.016C313.734 50.768 313.03 53.648 312.39 56.656C311.814 59.664 311.526 62.416 311.526 64.912C311.526 67.216 311.878 69.008 312.582 70.288C313.35 71.568 314.534 72.208 316.134 72.208C316.326 72.208 316.518 72.208 316.71 72.208C316.902 72.208 317.094 72.176 317.286 72.112C318.374 71.92 319.462 71.312 320.55 70.288C321.702 69.264 322.822 68.048 323.91 66.64C325.446 64.656 326.854 62.544 328.134 60.304C329.414 58.064 330.374 56.336 331.014 55.12C331.334 54.608 331.59 54.352 331.782 54.352C332.038 54.352 332.166 54.576 332.166 55.024C332.166 55.28 332.07 55.6 331.878 55.984C330.982 57.584 329.83 59.6 328.422 62.032C327.078 64.4 325.574 66.608 323.91 68.656C322.694 70.064 321.414 71.28 320.07 72.304C318.726 73.328 317.318 73.968 315.846 74.224C315.462 74.288 315.078 74.32 314.694 74.32C314.374 74.384 314.022 74.416 313.638 74.416C311.782 74.416 310.15 73.872 308.742 72.784C307.334 71.76 306.374 70 305.862 67.504C305.734 66.8 305.638 66.064 305.574 65.296C305.51 64.528 305.478 63.792 305.478 63.088C305.478 59.376 306.118 55.632 307.398 51.856C308.742 48.08 310.118 44.56 311.526 41.296H296.742C295.718 42.704 294.726 44.176 293.766 45.712C292.806 47.184 291.814 48.656 290.79 50.128C288.934 52.816 286.694 55.664 284.07 58.672C281.51 61.616 278.694 64.432 275.622 67.12C272.55 69.744 269.318 71.952 265.926 73.744C262.598 75.536 259.238 76.56 255.846 76.816ZM349.795 70.864C347.491 70.864 345.731 70.192 344.515 68.848C343.299 67.504 342.435 65.872 341.923 63.952C341.475 61.968 341.251 60.08 341.251 58.288C341.251 56.624 341.411 54.928 341.731 53.2C342.115 51.472 342.787 50 343.747 48.784C344.323 48.08 344.995 47.536 345.763 47.152C346.595 46.768 346.947 46.8 346.819 47.248C346.691 47.504 346.627 47.76 346.627 48.016C346.691 48.528 346.979 48.944 347.491 49.264C348.003 49.52 348.643 49.648 349.411 49.648C350.179 49.648 350.979 49.52 351.811 49.264C352.707 49.008 353.507 48.624 354.211 48.112C355.043 47.536 355.779 46.8 356.419 45.904C357.059 44.944 357.379 43.952 357.379 42.928C357.379 41.904 357.091 41.2 356.515 40.816C356.003 40.432 355.395 40.24 354.691 40.24C354.371 40.24 354.019 40.272 353.635 40.336C353.251 40.4 352.899 40.496 352.579 40.624C350.531 41.264 348.483 42.48 346.435 44.272C344.451 46 342.563 48.016 340.771 50.32C339.043 52.624 337.475 54.928 336.067 57.232C335.171 58.768 334.211 60.56 333.187 62.608C332.163 64.592 331.491 66.192 331.171 67.408C330.851 68.56 330.307 69.296 329.539 69.616C328.835 69.936 328.099 70.064 327.331 70C326.563 70 325.955 70 325.507 70C325.827 69.104 326.243 67.888 326.755 66.352C327.331 64.816 327.907 63.28 328.483 61.744C329.059 60.144 329.539 58.896 329.923 58C331.587 53.904 333.379 49.52 335.299 44.848C337.283 40.176 339.395 35.536 341.635 30.928C343.939 26.256 346.435 21.872 349.123 17.776C351.875 13.68 354.819 10.16 357.955 7.216C361.155 4.208 364.611 2.032 368.323 0.687994C368.643 0.623995 368.995 0.559996 369.379 0.495996C369.763 0.431997 370.147 0.399998 370.531 0.399998C371.555 0.399998 372.419 0.623997 373.123 1.07199C374.019 1.64799 374.467 2.64 374.467 4.048C374.467 5.136 374.179 6.416 373.603 7.888C372.579 10.448 370.915 13.2 368.611 16.144C366.307 19.088 363.587 22.096 360.451 25.168C356.739 28.688 353.187 31.856 349.795 34.672C346.403 37.424 343.587 39.632 341.347 41.296C340.003 44.24 338.883 46.864 337.987 49.168C337.091 51.408 336.483 52.976 336.163 53.872C337.571 51.824 339.139 49.808 340.867 47.824C342.595 45.776 344.355 44.08 346.147 42.736C349.987 39.856 353.603 38.416 356.995 38.416C358.915 38.416 360.227 38.992 360.931 40.144C361.123 40.4 361.251 40.72 361.315 41.104C361.379 41.488 361.411 41.84 361.411 42.16C361.411 43.376 361.091 44.592 360.451 45.808C359.811 46.96 359.043 47.856 358.147 48.496C357.123 49.264 355.907 49.904 354.499 50.416C353.155 50.864 351.843 51.088 350.563 51.088C349.219 51.088 348.067 50.8 347.107 50.224L346.339 49.744C346.211 50.704 346.083 51.824 345.955 53.104C345.827 54.32 345.763 55.6 345.763 56.944C345.763 57.584 345.763 58.224 345.763 58.864C345.827 59.44 345.891 60.048 345.955 60.688C346.083 61.712 346.275 62.896 346.531 64.24C346.851 65.52 347.363 66.64 348.067 67.6C348.771 68.56 349.699 69.072 350.851 69.136C351.939 69.136 352.995 68.752 354.019 67.984C355.043 67.216 355.907 66.416 356.611 65.584C358.083 63.984 359.331 62.384 360.355 60.784C361.443 59.12 362.787 56.816 364.387 53.872C364.515 53.68 364.611 53.584 364.675 53.584C364.931 53.584 365.059 53.872 365.059 54.448C365.059 54.832 364.963 55.216 364.771 55.6C363.747 57.52 362.595 59.536 361.315 61.648C360.035 63.76 358.467 65.744 356.611 67.6C355.779 68.432 354.755 69.2 353.539 69.904C352.387 70.544 351.139 70.864 349.795 70.864ZM342.211 39.376C345.859 36.624 349.155 33.872 352.099 31.12C355.043 28.368 358.051 25.392 361.123 22.192C362.019 21.232 363.171 19.952 364.579 18.352C366.051 16.752 367.459 15.024 368.803 13.168C370.211 11.312 371.267 9.52 371.971 7.792C372.611 6.256 372.931 5.008 372.931 4.048C372.931 2.32 372.163 1.456 370.627 1.456C369.795 1.456 368.867 1.712 367.843 2.224C366.819 2.736 365.859 3.44 364.963 4.336C361.955 7.152 359.043 10.576 356.227 14.608C353.411 18.64 350.819 22.832 348.451 27.184C346.083 31.472 344.003 35.536 342.211 39.376ZM334.898 102.16C332.914 102.864 330.898 103.216 328.85 103.216C326.034 103.216 323.506 102.544 321.266 101.2C319.026 99.856 317.906 97.808 317.906 95.056C317.906 94.544 317.938 94.032 318.002 93.52C318.066 93.072 318.194 92.56 318.386 91.984C318.578 91.536 318.738 91.344 318.866 91.408C318.93 91.536 318.962 91.728 318.962 91.984C318.962 95.12 320.05 97.52 322.226 99.184C324.338 100.848 326.802 101.68 329.618 101.68C331.346 101.68 333.01 101.392 334.61 100.816C337.234 99.92 339.57 98.512 341.618 96.592C343.666 94.672 345.426 92.624 346.898 90.448C348.306 88.4 349.714 86.032 351.122 83.344C352.53 80.656 353.874 77.84 355.154 74.896C356.434 71.952 357.65 69.104 358.802 66.352C359.954 63.536 360.946 61.04 361.778 58.864C362.738 56.368 363.858 53.648 365.138 50.704C366.482 47.76 367.954 44.816 369.554 41.872C371.154 38.864 372.882 36.144 374.738 33.712C376.658 31.216 378.642 29.2 380.69 27.664C382.162 26.512 383.698 25.936 385.298 25.936C385.554 25.936 385.778 25.936 385.97 25.936C386.226 25.936 386.482 26 386.738 26.128C386.866 26.192 386.93 26.288 386.93 26.416C386.93 26.48 386.802 26.512 386.546 26.512C385.906 26.576 385.138 26.896 384.242 27.472C383.346 27.984 382.258 29.104 380.978 30.832C380.466 31.6 379.314 33.232 377.522 35.728C375.794 38.224 374.162 41.232 372.626 44.752C374.482 42.64 376.21 41.136 377.81 40.24C379.41 39.344 380.85 38.896 382.13 38.896C384.178 38.896 385.586 39.408 386.354 40.432C387.122 41.456 387.506 42.736 387.506 44.272C387.506 45.68 387.25 47.184 386.738 48.784C386.29 50.384 385.714 51.92 385.01 53.392C384.37 54.864 383.762 56.112 383.186 57.136C382.738 57.968 382.066 58.96 381.17 60.112C380.274 61.264 379.25 62.448 378.098 63.664C378.29 64.56 378.674 65.2 379.25 65.584C379.89 65.968 380.626 66.16 381.458 66.16C382.354 66.16 383.282 65.968 384.242 65.584C385.266 65.2 386.098 64.72 386.738 64.144C388.21 62.928 389.554 61.488 390.77 59.824C391.986 58.16 393.106 56.432 394.13 54.64C394.194 54.512 394.226 54.448 394.226 54.448C394.29 54.448 394.322 54.448 394.322 54.448C394.45 54.448 394.514 54.736 394.514 55.312C394.514 55.568 394.514 55.824 394.514 56.08C394.514 56.272 394.45 56.464 394.322 56.656C393.234 58.576 392.114 60.304 390.962 61.84C389.81 63.312 388.402 64.624 386.738 65.776C385.906 66.288 384.978 66.736 383.954 67.12C382.994 67.44 382.034 67.6 381.074 67.6C380.114 67.6 379.25 67.408 378.482 67.024C377.778 66.576 377.266 65.872 376.946 64.912C375.858 65.936 374.546 66.992 373.01 68.08C371.538 69.104 370.002 69.68 368.402 69.808C368.146 69.872 367.89 69.904 367.634 69.904C367.442 69.904 367.25 69.904 367.058 69.904C364.818 69.904 363.442 69.04 362.93 67.312C361.97 70.064 360.626 73.168 358.898 76.624C357.17 80.08 355.122 83.504 352.754 86.896C350.386 90.352 347.73 93.424 344.786 96.112C341.778 98.864 338.482 100.88 334.898 102.16ZM366.482 68.464C367.634 68.464 368.786 68.016 369.938 67.12C371.154 66.16 372.306 64.976 373.394 63.568C374.546 62.16 375.602 60.688 376.562 59.152C377.586 57.616 378.418 56.24 379.058 55.024C379.442 54.384 379.954 53.392 380.594 52.048C381.234 50.64 381.81 49.136 382.322 47.536C382.834 45.936 383.09 44.528 383.09 43.312C383.09 42.416 382.93 41.712 382.61 41.2C382.29 40.688 381.682 40.432 380.786 40.432C379.762 40.432 378.578 41.008 377.234 42.16C375.954 43.312 374.642 44.752 373.298 46.48C372.018 48.208 370.834 49.936 369.746 51.664C369.49 52.112 369.042 52.88 368.402 53.968C367.762 55.056 367.09 56.304 366.386 57.712C365.746 59.12 365.17 60.528 364.658 61.936C364.21 63.344 363.986 64.592 363.986 65.68C363.986 67.536 364.818 68.464 366.482 68.464ZM412.509 68.272C411.421 69.168 410.333 69.808 409.245 70.192C408.221 70.64 407.261 70.864 406.365 70.864C404.765 70.864 403.421 70.32 402.333 69.232C401.309 68.08 400.797 66.576 400.797 64.72C400.797 63.632 401.053 62.32 401.565 60.784C402.397 58.48 403.645 56.272 405.309 54.16C406.973 52.048 408.573 49.904 410.109 47.728C411.069 46.448 411.549 45.2 411.549 43.984C411.549 43.344 411.357 42.8 410.973 42.352C410.653 41.904 410.045 41.648 409.149 41.584C408.637 41.456 408.061 41.392 407.421 41.392C406.781 41.392 406.141 41.392 405.501 41.392H402.813C402.429 41.392 402.077 41.392 401.757 41.392C401.437 41.392 401.149 41.36 400.893 41.296C400.637 42.896 400.093 44.688 399.261 46.672C398.493 48.656 397.597 50.64 396.573 52.624C395.549 54.608 394.557 56.4 393.597 58C393.341 58.384 393.117 58.576 392.925 58.576C392.733 58.576 392.637 58.384 392.637 58C392.637 57.552 392.733 57.2 392.925 56.944C394.269 54.32 395.549 51.76 396.765 49.264C398.045 46.704 398.909 44.048 399.357 41.296C397.885 40.464 396.893 39.024 396.381 36.976C396.317 36.656 396.253 36.368 396.189 36.112C396.189 35.792 396.189 35.504 396.189 35.248C396.189 34.096 396.413 33.136 396.861 32.368C397.373 31.536 397.949 31.12 398.589 31.12C399.485 31.12 400.221 31.984 400.797 33.712C400.925 34.16 401.021 34.672 401.085 35.248C401.149 35.76 401.181 36.272 401.181 36.784C401.181 37.36 401.149 37.904 401.085 38.416C401.085 38.864 401.053 39.248 400.989 39.568C401.437 39.696 402.013 39.792 402.717 39.856C403.485 39.92 404.317 39.952 405.213 39.952C406.557 39.952 407.965 39.92 409.437 39.856C410.909 39.728 412.157 39.664 413.181 39.664C414.397 39.664 415.229 39.92 415.677 40.432C416.125 40.944 416.349 41.584 416.349 42.352C416.349 43.312 416.093 44.368 415.581 45.52C415.133 46.608 414.685 47.536 414.237 48.304C413.405 49.84 412.605 51.216 411.837 52.432C411.133 53.584 410.333 54.832 409.437 56.176C408.093 58.224 407.101 60.112 406.461 61.84C405.885 63.504 405.597 64.912 405.597 66.064C405.597 68.048 406.333 69.04 407.805 69.04C409.021 69.04 410.589 68.176 412.509 66.448C413.725 65.36 414.845 64.08 415.869 62.608C416.957 61.072 417.917 59.536 418.749 58C419.645 56.4 420.381 55.088 420.957 54.064C421.085 53.872 421.213 53.776 421.341 53.776C421.597 53.776 421.725 54.032 421.725 54.544C421.725 54.928 421.629 55.28 421.437 55.6C420.349 57.584 419.101 59.76 417.693 62.128C416.285 64.496 414.557 66.544 412.509 68.272ZM428.193 71.92C425.761 71.92 423.649 71.152 421.857 69.616C420.129 68.016 419.265 65.584 419.265 62.32C419.265 60.272 419.617 58.16 420.321 55.984C421.089 53.744 421.921 51.76 422.817 50.032C424.481 46.896 426.561 44.176 429.057 41.872C431.617 39.504 434.657 38.32 438.177 38.32C441.569 38.32 443.937 39.248 445.281 41.104C446.625 42.96 447.297 45.232 447.297 47.92C447.297 49.008 447.201 50.128 447.009 51.28C446.497 54.416 445.441 57.456 443.841 60.4C444.289 61.04 444.865 61.584 445.569 62.032C446.337 62.416 447.169 62.608 448.065 62.608C449.601 62.608 450.913 62.192 452.001 61.36C453.089 60.528 454.017 59.504 454.785 58.288C455.617 57.008 456.321 55.824 456.897 54.736C457.281 54.032 457.633 53.68 457.953 53.68C458.145 53.68 458.241 53.808 458.241 54.064C458.241 54.32 458.049 54.896 457.665 55.792C456.577 57.968 455.297 59.856 453.825 61.456C452.353 63.056 450.433 63.856 448.065 63.856C445.889 63.856 444.225 63.088 443.073 61.552C441.281 64.496 439.105 66.96 436.545 68.944C433.985 70.928 431.201 71.92 428.193 71.92ZM428.385 70.768C431.521 70.768 434.625 69.232 437.697 66.16C438.593 65.264 439.393 64.336 440.097 63.376C440.865 62.352 441.537 61.328 442.113 60.304C441.281 59.344 440.673 58.32 440.289 57.232C439.969 56.08 439.809 54.992 439.809 53.968C439.809 52.368 440.097 50.96 440.673 49.744C441.249 48.464 442.049 47.824 443.073 47.824C443.585 47.824 444.065 48.08 444.513 48.592C445.025 49.104 445.345 49.904 445.473 50.992C445.665 50.096 445.761 49.136 445.761 48.112C445.761 45.68 445.313 43.76 444.417 42.352C443.521 40.88 442.017 40.144 439.905 40.144C438.625 40.144 437.313 40.656 435.969 41.68C434.625 42.64 433.345 43.824 432.129 45.232C430.977 46.64 429.953 48.08 429.057 49.552C428.161 51.024 427.489 52.24 427.041 53.2C425.953 55.568 425.153 57.68 424.641 59.536C424.193 61.392 423.969 63.024 423.969 64.432C423.969 66.48 424.385 68.048 425.217 69.136C426.113 70.224 427.169 70.768 428.385 70.768ZM474.842 70.672C472.666 70.672 471.13 70.032 470.234 68.752C469.402 67.472 468.986 66.096 468.986 64.624C468.986 63.984 469.05 63.376 469.178 62.8C469.306 62.16 469.466 61.552 469.658 60.976C470.746 58.16 472.25 55.472 474.17 52.912C476.09 50.352 477.69 47.696 478.97 44.944C479.418 44.112 479.642 43.344 479.642 42.64C479.642 41.872 479.418 41.296 478.97 40.912C478.522 40.528 478.042 40.336 477.53 40.336C476.314 40.336 474.97 40.88 473.498 41.968C472.09 42.992 470.714 44.304 469.37 45.904C468.154 47.312 466.906 48.944 465.626 50.8C464.346 52.592 463.13 54.512 461.978 56.56C460.89 58.416 459.77 60.368 458.618 62.416C457.466 64.4 456.538 66.096 455.834 67.504C455.322 68.592 454.778 69.296 454.202 69.616C453.626 69.936 453.082 70.096 452.57 70.096C452.314 70.096 452.058 70.064 451.802 70C451.546 70 451.322 70 451.13 70C451.706 67.824 452.762 64.848 454.298 61.072C455.898 57.232 457.786 52.688 459.962 47.44C461.178 44.624 462.618 41.392 464.282 37.744C465.946 34.032 467.834 30.256 469.946 26.416C472.058 22.512 474.394 18.832 476.954 15.376C479.514 11.856 482.266 8.784 485.21 6.16C488.218 3.536 491.386 1.712 494.714 0.687994C495.098 0.623995 495.482 0.559996 495.866 0.495996C496.25 0.431997 496.634 0.399998 497.018 0.399998C497.978 0.399998 498.81 0.623997 499.514 1.07199C500.41 1.64799 500.858 2.672 500.858 4.144C500.858 5.168 500.57 6.416 499.994 7.888C498.97 10.448 497.274 13.2 494.906 16.144C492.602 19.088 489.882 22.096 486.746 25.168C482.842 28.944 479.098 32.272 475.514 35.152C471.93 38.032 469.05 40.304 466.874 41.968C465.594 44.72 464.538 47.12 463.706 49.168C462.874 51.152 462.33 52.592 462.074 53.488C463.098 51.952 464.25 50.288 465.53 48.496C466.874 46.64 468.058 45.2 469.082 44.176C470.554 42.704 472.026 41.456 473.498 40.432C474.97 39.408 476.41 38.832 477.818 38.704C479.994 38.512 481.562 38.8 482.522 39.568C483.482 40.272 483.962 41.328 483.962 42.736C483.962 44.144 483.578 45.712 482.81 47.44C481.978 49.424 480.986 51.408 479.834 53.392C478.682 55.376 477.626 57.296 476.666 59.152C476.41 59.664 475.93 60.656 475.226 62.128C474.586 63.536 474.17 64.88 473.978 66.16C473.978 66.224 473.946 66.32 473.882 66.448C473.882 66.576 473.882 66.704 473.882 66.832C473.882 67.536 474.074 68.08 474.458 68.464C474.842 68.784 475.29 68.944 475.802 68.944C476.89 68.944 477.914 68.592 478.874 67.888C479.834 67.184 480.666 66.416 481.37 65.584C482.842 63.984 484.186 62.224 485.402 60.304C486.618 58.384 487.834 56.336 489.05 54.16C489.242 53.904 489.434 53.776 489.626 53.776C489.882 53.776 490.01 53.968 490.01 54.352C490.01 54.672 489.946 54.928 489.818 55.12C488.666 57.232 487.418 59.344 486.074 61.456C484.794 63.568 483.226 65.552 481.37 67.408C480.538 68.24 479.578 69.008 478.49 69.712C477.402 70.352 476.186 70.672 474.842 70.672ZM467.738 40.048C471.578 37.232 475.034 34.384 478.106 31.504C481.178 28.624 484.282 25.52 487.418 22.192C488.314 21.232 489.466 19.952 490.874 18.352C492.346 16.752 493.786 15.024 495.194 13.168C496.602 11.312 497.658 9.52 498.362 7.792C499.002 6.32 499.322 5.072 499.322 4.048C499.322 2.32 498.522 1.456 496.922 1.456C496.09 1.456 495.162 1.712 494.138 2.224C493.114 2.736 492.154 3.44 491.258 4.336C488.186 7.216 485.178 10.736 482.234 14.896C479.354 18.992 476.666 23.248 474.17 27.664C471.738 32.08 469.594 36.208 467.738 40.048Z" fill="black"/>
</svg>
